<svg viewBox="0 0 162 162" x="0" y="0" fill="none" xmlns="http://www.w3.org/2000/svg"><g id="Frame 336" xmlns="http://www.w3.org/2000/svg">
<g id="Group 47">
<circle id="Ellipse 21" cx="11.571000000000026" cy="11.571000000000026" r="11.5714" fill="currentColor"/>
<path id="+" d="M10.898,15.003v-4.688h0.795v4.688zM8.952,13.057v-0.796h4.687v0.796z" fill="white"/>
</g>
<g id="Group 57">
<circle id="Ellipse 21_2" cx="46.571000000000026" cy="11.571000000000026" r="11.5714" fill="currentColor"/>
<path id="+_2" d="M45.898,15.003v-4.688h0.795v4.688zM43.952,13.057v-0.796h4.687v0.796z" fill="white"/>
</g>
<g id="Group 65">
<circle id="Ellipse 21_3" cx="80.57100000000003" cy="11.571000000000026" r="11.5714" fill="currentColor"/>
<path id="+_3" d="M79.898,15.003v-4.688h0.795v4.688zM77.952,13.057v-0.796h4.687v0.796z" fill="white"/>
</g>
<g id="Group 69">
<circle id="Ellipse 21_4" cx="115.57100000000003" cy="11.571000000000026" r="11.5714" fill="currentColor"/>
<path id="+_4" d="M114.898,15.003v-4.688h0.795v4.688zM112.952,13.057v-0.796h4.687v0.796z" fill="white"/>
</g>
<g id="Group 61">
<circle id="Ellipse 21_5" cx="150.57100000000003" cy="11.571000000000026" r="11.5714" fill="currentColor"/>
<path id="+_5" d="M149.898,15.003v-4.688h0.795v4.688zM147.952,13.057v-0.796h4.687v0.796z" fill="white"/>
</g>
<g id="Group 31">
<g id="Group 47_2">
<circle id="Ellipse 21_6" cx="11.571000000000026" cy="46.571000000000026" r="11.5714" fill="currentColor"/>
<path id="+_6" d="M10.898,50.003v-4.688h0.795v4.688zM8.952,48.057v-0.796h4.687v0.796z" fill="white"/>
</g>
</g>
<g id="Group 64">
<circle id="Ellipse 21_7" cx="46.571000000000026" cy="46.571000000000026" r="11.5714" fill="currentColor"/>
<path id="+_7" d="M45.898,50.003v-4.688h0.795v4.688zM43.952,48.057v-0.796h4.687v0.796z" fill="white"/>
</g>
<g id="Group 33">
<g id="Group 47_3">
<circle id="Ellipse 21_8" cx="80.57100000000003" cy="46.571000000000026" r="11.5714" fill="currentColor"/>
<path id="+_8" d="M79.898,50.003v-4.688h0.795v4.688zM77.952,48.057v-0.796h4.687v0.796z" fill="white"/>
</g>
</g>
<g id="Group 67">
<circle id="Ellipse 21_9" cx="115.57100000000003" cy="46.571000000000026" r="11.5714" fill="currentColor"/>
<path id="+_9" d="M114.898,50.003v-4.688h0.795v4.688zM112.952,48.057v-0.796h4.687v0.796z" fill="white"/>
</g>
<g id="Group 63">
<circle id="Ellipse 21_10" cx="150.57100000000003" cy="46.571000000000026" r="11.5714" fill="currentColor"/>
<path id="+_10" d="M149.898,50.003v-4.688h0.795v4.688zM147.952,48.057v-0.796h4.687v0.796z" fill="white"/>
</g>
<g id="Group 59">
<circle id="Ellipse 21_11" cx="11.571000000000026" cy="80.57100000000003" r="11.5714" fill="currentColor"/>
<path id="+_11" d="M10.898,84.003v-4.688h0.795v4.688zM8.952,82.057v-0.796h4.687v0.796z" fill="white"/>
</g>
<g id="Group 36">
<g id="Group 47_4">
<circle id="Ellipse 21_12" cx="46.571000000000026" cy="80.57100000000003" r="11.5714" fill="currentColor"/>
<path id="+_12" d="M45.898,84.003v-4.688h0.795v4.688zM43.952,82.057v-0.796h4.687v0.796z" fill="white"/>
</g>
</g>
<g id="Group 60">
<circle id="Ellipse 21_13" cx="80.57100000000003" cy="80.57100000000003" r="11.5714" fill="currentColor"/>
<path id="+_13" d="M79.898,84.003v-4.688h0.795v4.688zM77.952,82.057v-0.796h4.687v0.796z" fill="white"/>
</g>
<g id="Group 71">
<circle id="Ellipse 21_14" cx="115.57100000000003" cy="80.57100000000003" r="11.5714" fill="currentColor"/>
<path id="+_14" d="M114.898,84.003v-4.688h0.795v4.688zM112.952,82.057v-0.796h4.687v0.796z" fill="white"/>
</g>
<g id="Group 53">
<g id="Group 47_5">
<circle id="Ellipse 21_15" cx="150.57100000000003" cy="80.57100000000003" r="11.5714" fill="currentColor"/>
<path id="+_15" d="M149.898,84.003v-4.688h0.795v4.688zM147.952,82.057v-0.796h4.687v0.796z" fill="white"/>
</g>
</g>
<g id="Group 39">
<g id="Group 47_6">
<circle id="Ellipse 21_16" cx="11.571000000000026" cy="115.57100000000003" r="11.5714" fill="currentColor"/>
<path id="+_16" d="M10.898,119.003v-4.688h0.795v4.688zM8.952,117.057v-0.796h4.687v0.796z" fill="white"/>
</g>
</g>
<g id="Group 58">
<circle id="Ellipse 21_17" cx="46.571000000000026" cy="115.57100000000003" r="11.5714" fill="currentColor"/>
<path id="+_17" d="M45.898,119.003v-4.688h0.795v4.688zM43.952,117.057v-0.796h4.687v0.796z" fill="white"/>
</g>
<g id="Group 41">
<g id="Group 47_7">
<circle id="Ellipse 21_18" cx="80.57100000000003" cy="115.57100000000003" r="11.5714" fill="currentColor"/>
<path id="+_18" d="M79.898,119.003v-4.688h0.795v4.688zM77.952,117.057v-0.796h4.687v0.796z" fill="white"/>
</g>
</g>
<g id="Group 42">
<g id="Group 47_8">
<circle id="Ellipse 21_19" cx="115.57100000000003" cy="115.57100000000003" r="11.5714" fill="currentColor"/>
<path id="+_19" d="M114.898,119.003v-4.688h0.795v4.688zM112.952,117.057v-0.796h4.687v0.796z" fill="white"/>
</g>
</g>
<g id="Group 54">
<g id="Group 47_9">
<circle id="Ellipse 21_20" cx="150.57100000000003" cy="115.57100000000003" r="11.5714" fill="currentColor"/>
<path id="+_20" d="M149.898,119.003v-4.688h0.795v4.688zM147.952,117.057v-0.796h4.687v0.796z" fill="white"/>
</g>
</g>
<g id="Group 68">
<circle id="Ellipse 21_21" cx="11.571000000000026" cy="150.57100000000003" r="11.5714" fill="currentColor"/>
<path id="+_21" d="M10.898,154.003v-4.688h0.795v4.688zM8.952,152.057v-0.796h4.687v0.796z" fill="white"/>
</g>
<g id="Group 70">
<circle id="Ellipse 21_22" cx="46.571000000000026" cy="150.57100000000003" r="11.5714" fill="currentColor"/>
<path id="+_22" d="M45.898,154.003v-4.688h0.795v4.688zM43.952,152.057v-0.796h4.687v0.796z" fill="white"/>
</g>
<g id="Group 66">
<circle id="Ellipse 21_23" cx="80.57100000000003" cy="150.57100000000003" r="11.5714" fill="currentColor"/>
<path id="+_23" d="M79.898,154.003v-4.688h0.795v4.688zM77.952,152.057v-0.796h4.687v0.796z" fill="white"/>
</g>
<g id="Group 62">
<circle id="Ellipse 21_24" cx="115.57100000000003" cy="150.57100000000003" r="11.5714" fill="currentColor"/>
<path id="+_24" d="M114.898,154.003v-4.688h0.795v4.688zM112.952,152.057v-0.796h4.687v0.796z" fill="white"/>
</g>
<g id="Group 55">
<g id="Group 47_10">
<circle id="Ellipse 21_25" cx="150.57100000000003" cy="150.57100000000003" r="11.5714" fill="currentColor"/>
<path id="+_25" d="M149.898,154.003v-4.688h0.795v4.688zM147.952,152.057v-0.796h4.687v0.796z" fill="white"/>
</g>
</g>
</g></svg>