<svg viewBox="0 0 822.0264 356.9769" fill="none" xmlns="http://www.w3.org/2000/svg" xmlns:xlink="http://www.w3.org/1999/xlink" id="b58d57c5" x="0" y="0"><g id="Businesses" data-node-id="1417:14015" clip-path="url(#clip0_1417_14015)"><g id="Frame 854" data-node-id="1417:14142"><g id="Frame 852_2" data-node-id="1417:14269"><g id="Frame 144" data-node-id="1417:14770"><path id="Vector 54" data-node-id="1417:14793" d="M1.4501,354.9405l60.753,-43.26c1.149,-0.81 2.473,-1.35 3.867,-1.56l88.984,-13.54c0.596,-0.09 1.181,-0.24 1.747,-0.45l161.837,-59.39c0.54,-0.2 1.098,-0.35 1.666,-0.44l174.384,-28.16c0.837,-0.13 1.651,-0.38 2.417,-0.75l167.865,-79.49c0.65,-0.3 1.26,-0.69 1.82,-1.14l153.66,-124.82" stroke="#0B91D6" stroke-width="5"/><circle id="Ellipse 62" data-node-id="1417:14794" cx="44.45010000000002" cy="322.94049999999993" r="10" fill="white" stroke="#EF232A" stroke-width="4"/><circle id="Ellipse 63" data-node-id="1417:14795" cx="114.45010000000002" cy="300.94049999999993" r="10" fill="white" stroke="#EF232A" stroke-width="4"/><circle id="Ellipse 64" data-node-id="1417:14796" cx="220.45010000000002" cy="272.94049999999993" r="10" fill="white" stroke="#EF232A" stroke-width="4"/><circle id="Ellipse 65" data-node-id="1417:14797" cx="315.4501" cy="236.94049999999993" r="10" fill="white" stroke="#EF232A" stroke-width="4"/><circle id="Ellipse 70" data-node-id="1417:14798" cx="427.4501" cy="217.94049999999993" r="10" fill="white" stroke="#34A853" stroke-width="4"/><circle id="Ellipse 66" data-node-id="1417:14799" cx="548.4501" cy="182.94049999999993" r="10" fill="white" stroke="#34A853" stroke-width="4"/><circle id="Ellipse 67" data-node-id="1417:14800" cx="658.4501" cy="131.94049999999993" r="10" fill="white" stroke="#0B91D6" stroke-width="4"/><circle id="Ellipse 68" data-node-id="1417:14801" cx="725.4501" cy="79.94049999999993" r="10" fill="white" stroke="#34A853" stroke-width="4"/><circle id="Ellipse 69" data-node-id="1417:14802" cx="788.4501" cy="29.94049999999993" r="10" fill="white" stroke="#34A853" stroke-width="4"/></g></g></g></g><defs><clipPath id="clip0_1417_14015">
<rect width="1440" height="4145" fill="white" x="-479.5499" y="-1259.0595"/>
</clipPath></defs></svg>