<svg viewBox="0 0 142 142" x="0" y="0" fill="none" xmlns="http://www.w3.org/2000/svg"><defs><mask id="path-146-inside-23_1386_15716" fill="white" xmlns="http://www.w3.org/2000/svg">
<path d="M142,71c0,10.83 -2.476,21.51 -7.24,31.24c-4.764,9.72 -11.688,18.22 -20.244,24.86c-8.555,6.64 -18.515,11.23 -29.118,13.42c-10.603,2.2 -21.567,1.94 -32.055,-0.75c-10.488,-2.69 -20.22,-7.75 -28.454,-14.78c-8.233,-7.03 -14.749,-15.86 -19.05,-25.79c-4.3,-9.94 -6.27,-20.73 -5.76,-31.54c0.51,-10.82 3.487,-21.38 8.703,-30.86l62.218,34.2z"/>
</mask></defs><g id="Group 78" xmlns="http://www.w3.org/2000/svg">
<circle id="Ellipse 50" cx="71" cy="71" r="71" fill="#34A853" fill-opacity="0.2"/>
<g id="Ellipse 51">
<mask id="path-146-inside-23_1386_15716" fill="white">
<path d="M695 1112C695 1122.83 692.524 1133.51 687.76 1143.24C682.996 1152.96 676.072 1161.46 667.516 1168.1C658.961 1174.74 649.001 1179.33 638.398 1181.52C627.795 1183.72 616.831 1183.46 606.343 1180.77C595.855 1178.08 586.123 1173.02 577.889 1165.99C569.656 1158.96 563.14 1150.13 558.839 1140.2C554.539 1130.26 552.569 1119.47 553.079 1108.66C553.589 1097.84 556.566 1087.28 561.782 1077.8L624 1112H695Z"/>
</mask>
<path d="M142,71c0,10.83 -2.476,21.51 -7.24,31.24c-4.764,9.72 -11.688,18.22 -20.244,24.86c-8.555,6.64 -18.515,11.23 -29.118,13.42c-10.603,2.2 -21.567,1.94 -32.055,-0.75c-10.488,-2.69 -20.22,-7.75 -28.454,-14.78c-8.233,-7.03 -14.749,-15.86 -19.05,-25.79c-4.3,-9.94 -6.27,-20.73 -5.76,-31.54c0.51,-10.82 3.487,-21.38 8.703,-30.86l62.218,34.2z" fill="#34A853" stroke="white" stroke-width="2" mask="url(#path-146-inside-23_1386_15716)"/>
</g>
</g></svg>