<svg viewBox="0 0 1015 589" x="0" y="0" fill="none" xmlns="http://www.w3.org/2000/svg"><g id="Frame 469_2" xmlns="http://www.w3.org/2000/svg">
<rect x="0.30000000000001137" y="0.2999999999999545" width="1014.4" height="588.4" rx="11.32" fill="white"/>
<rect x="0.30000000000001137" y="0.2999999999999545" width="1014.4" height="588.4" rx="11.32" stroke="#F6F0F0" stroke-width="0.6"/>
<path id="Vector 14" d="M74.5,59h923.5" stroke="#A0A0AA" stroke-opacity="0.7" stroke-width="0.8" stroke-dasharray="9 9"/>
<g id="Frame 142">
<path id="0" d="M43.375,464.14c-0.749,0 -1.387,-0.2 -1.914,-0.61c-0.527,-0.41 -0.93,-1.01 -1.208,-1.79c-0.279,-0.78 -0.418,-1.72 -0.418,-2.83c0,-1.1 0.139,-2.04 0.418,-2.82c0.282,-0.78 0.686,-1.38 1.213,-1.79c0.53,-0.41 1.167,-0.62 1.909,-0.62c0.742,0 1.377,0.21 1.904,0.62c0.53,0.41 0.935,1.01 1.213,1.79c0.282,0.78 0.423,1.72 0.423,2.82c0,1.11 -0.139,2.05 -0.418,2.83c-0.278,0.78 -0.681,1.38 -1.208,1.79c-0.527,0.41 -1.165,0.61 -1.914,0.61zM43.375,463.05c0.742,0 1.319,-0.36 1.73,-1.08c0.411,-0.71 0.617,-1.74 0.617,-3.06c0,-0.88 -0.095,-1.63 -0.284,-2.25c-0.185,-0.62 -0.454,-1.1 -0.805,-1.42c-0.348,-0.32 -0.767,-0.49 -1.258,-0.49c-0.736,0 -1.311,0.37 -1.725,1.09c-0.414,0.72 -0.622,1.75 -0.622,3.07c0,0.88 0.093,1.63 0.279,2.25c0.185,0.61 0.452,1.08 0.8,1.4c0.352,0.32 0.774,0.49 1.268,0.49z" fill="#121927"/>
<path id="Vector 18" d="M77,458.5h923.5" stroke="#A0A0AA" stroke-opacity="0.7"/>
</g>
<path id="Jan" d="M107.291,477.82h1.233v7.28c0,0.65 -0.12,1.2 -0.358,1.65c-0.239,0.46 -0.575,0.8 -1.009,1.04c-0.435,0.23 -0.947,0.35 -1.537,0.35c-0.556,0 -1.052,-0.1 -1.486,-0.3c-0.434,-0.21 -0.776,-0.5 -1.024,-0.88c-0.249,-0.38 -0.373,-0.83 -0.373,-1.35h1.213c0,0.29 0.071,0.54 0.214,0.76c0.146,0.21 0.344,0.38 0.596,0.5c0.252,0.12 0.539,0.18 0.86,0.18c0.355,0 0.657,-0.08 0.905,-0.23c0.249,-0.15 0.438,-0.37 0.567,-0.65c0.133,-0.3 0.199,-0.65 0.199,-1.07zM113.083,488.18c-0.484,0 -0.923,-0.09 -1.318,-0.27c-0.394,-0.19 -0.707,-0.46 -0.939,-0.8c-0.232,-0.36 -0.348,-0.78 -0.348,-1.28c0,-0.44 0.086,-0.79 0.258,-1.06c0.172,-0.28 0.403,-0.49 0.691,-0.65c0.289,-0.15 0.607,-0.27 0.955,-0.35c0.351,-0.08 0.704,-0.14 1.059,-0.18c0.464,-0.06 0.84,-0.11 1.128,-0.14c0.292,-0.03 0.504,-0.09 0.637,-0.16c0.136,-0.08 0.203,-0.21 0.203,-0.4v-0.04c0,-0.49 -0.134,-0.87 -0.402,-1.14c-0.265,-0.28 -0.668,-0.41 -1.208,-0.41c-0.56,0 -1,0.12 -1.318,0.37c-0.318,0.24 -0.542,0.5 -0.671,0.78l-1.114,-0.4c0.199,-0.46 0.464,-0.82 0.796,-1.08c0.335,-0.26 0.699,-0.44 1.094,-0.55c0.397,-0.1 0.788,-0.16 1.173,-0.16c0.245,0 0.527,0.03 0.845,0.09c0.322,0.06 0.631,0.18 0.93,0.36c0.301,0.18 0.552,0.45 0.75,0.81c0.199,0.36 0.299,0.84 0.299,1.45v5.03h-1.174v-1.03h-0.059c-0.08,0.16 -0.212,0.34 -0.398,0.53c-0.186,0.19 -0.432,0.35 -0.741,0.48c-0.308,0.13 -0.684,0.2 -1.128,0.2zM113.262,487.12c0.464,0 0.855,-0.09 1.173,-0.27c0.322,-0.18 0.563,-0.42 0.726,-0.7c0.166,-0.29 0.248,-0.6 0.248,-0.91v-1.08c-0.049,0.06 -0.159,0.12 -0.328,0.17c-0.165,0.04 -0.358,0.08 -0.576,0.12c-0.216,0.03 -0.426,0.06 -0.632,0.09c-0.202,0.02 -0.366,0.04 -0.492,0.06c-0.305,0.04 -0.59,0.1 -0.855,0.19c-0.262,0.09 -0.474,0.22 -0.636,0.4c-0.16,0.17 -0.239,0.4 -0.239,0.7c0,0.41 0.151,0.72 0.452,0.93c0.305,0.2 0.691,0.3 1.159,0.3zM119.898,483.41v4.59h-1.174v-7.64h1.134v1.2h0.099c0.179,-0.39 0.451,-0.7 0.816,-0.94c0.364,-0.24 0.835,-0.36 1.411,-0.36c0.518,0 0.97,0.11 1.358,0.32c0.388,0.21 0.689,0.53 0.905,0.96c0.215,0.42 0.323,0.96 0.323,1.61v4.85h-1.174v-4.77c0,-0.6 -0.155,-1.07 -0.467,-1.4c-0.311,-0.34 -0.739,-0.51 -1.283,-0.51c-0.374,0 -0.709,0.08 -1.004,0.24c-0.292,0.16 -0.522,0.4 -0.691,0.71c-0.169,0.31 -0.253,0.69 -0.253,1.14z" fill="#121927"/>
<path id="Feb" d="M266.483,488v-10.18h6.105v1.09h-4.872v3.44h4.415v1.1h-4.415v4.55zM277.182,488.16c-0.736,0 -1.371,-0.16 -1.904,-0.49c-0.531,-0.33 -0.94,-0.78 -1.228,-1.37c-0.285,-0.59 -0.428,-1.28 -0.428,-2.06c0,-0.78 0.143,-1.47 0.428,-2.07c0.288,-0.6 0.689,-1.06 1.203,-1.4c0.517,-0.34 1.12,-0.51 1.809,-0.51c0.398,0 0.791,0.07 1.179,0.2c0.388,0.14 0.741,0.35 1.059,0.65c0.318,0.29 0.571,0.69 0.76,1.17c0.189,0.49 0.284,1.09 0.284,1.8v0.5h-5.887v-1.01h4.694c0,-0.44 -0.087,-0.82 -0.259,-1.16c-0.169,-0.34 -0.411,-0.6 -0.726,-0.8c-0.311,-0.19 -0.679,-0.29 -1.104,-0.29c-0.467,0 -0.871,0.11 -1.213,0.35c-0.338,0.22 -0.598,0.52 -0.78,0.89c-0.182,0.37 -0.274,0.76 -0.274,1.18v0.68c0,0.58 0.1,1.07 0.299,1.47c0.202,0.39 0.482,0.7 0.84,0.91c0.358,0.2 0.774,0.31 1.248,0.31c0.308,0 0.586,-0.05 0.835,-0.13c0.252,-0.09 0.469,-0.23 0.651,-0.4c0.183,-0.18 0.323,-0.4 0.423,-0.67l1.133,0.32c-0.119,0.38 -0.319,0.72 -0.601,1.01c-0.282,0.29 -0.63,0.52 -1.044,0.68c-0.414,0.16 -0.88,0.24 -1.397,0.24zM282.288,488v-10.18h1.173v3.76h0.099c0.087,-0.14 0.206,-0.3 0.358,-0.51c0.156,-0.21 0.378,-0.39 0.667,-0.56c0.291,-0.16 0.686,-0.25 1.183,-0.25c0.643,0 1.21,0.16 1.7,0.49c0.491,0.32 0.873,0.77 1.148,1.36c0.276,0.59 0.413,1.29 0.413,2.09c0,0.81 -0.137,1.51 -0.413,2.1c-0.275,0.59 -0.656,1.05 -1.143,1.38c-0.487,0.32 -1.049,0.48 -1.685,0.48c-0.491,0 -0.884,-0.08 -1.179,-0.24c-0.295,-0.17 -0.522,-0.36 -0.681,-0.57c-0.159,-0.21 -0.281,-0.38 -0.368,-0.52h-0.139v1.17zM283.441,484.18c0,0.58 0.085,1.09 0.254,1.53c0.169,0.44 0.416,0.78 0.74,1.03c0.325,0.24 0.723,0.37 1.194,0.37c0.49,0 0.899,-0.13 1.228,-0.39c0.331,-0.26 0.58,-0.62 0.745,-1.06c0.169,-0.44 0.254,-0.93 0.254,-1.48c0,-0.54 -0.083,-1.02 -0.249,-1.45c-0.162,-0.43 -0.409,-0.78 -0.741,-1.03c-0.328,-0.25 -0.74,-0.38 -1.237,-0.38c-0.478,0 -0.879,0.12 -1.204,0.36c-0.324,0.24 -0.57,0.57 -0.735,1.01c-0.166,0.42 -0.249,0.92 -0.249,1.49z" fill="#121927"/>
<path id="March" d="M428.527,477.82h1.471l3.461,8.45h0.119l3.46,-8.45h1.472v10.18h-1.154v-7.74h-0.099l-3.182,7.74h-1.113l-3.182,-7.74h-0.1v7.74h-1.153zM443.07,488.18c-0.484,0 -0.923,-0.09 -1.317,-0.27c-0.395,-0.19 -0.708,-0.46 -0.94,-0.8c-0.232,-0.36 -0.348,-0.78 -0.348,-1.28c0,-0.44 0.086,-0.79 0.258,-1.06c0.173,-0.28 0.403,-0.49 0.692,-0.65c0.288,-0.15 0.606,-0.27 0.954,-0.35c0.351,-0.08 0.704,-0.14 1.059,-0.18c0.464,-0.06 0.84,-0.11 1.129,-0.14c0.291,-0.03 0.503,-0.09 0.636,-0.16c0.136,-0.08 0.204,-0.21 0.204,-0.4v-0.04c0,-0.49 -0.134,-0.87 -0.403,-1.14c-0.265,-0.28 -0.668,-0.41 -1.208,-0.41c-0.56,0 -0.999,0.12 -1.318,0.37c-0.318,0.24 -0.541,0.5 -0.671,0.78l-1.113,-0.4c0.199,-0.46 0.464,-0.82 0.795,-1.08c0.335,-0.26 0.699,-0.44 1.094,-0.55c0.398,-0.1 0.789,-0.16 1.173,-0.16c0.245,0 0.527,0.03 0.845,0.09c0.322,0.06 0.632,0.18 0.93,0.36c0.302,0.18 0.552,0.45 0.751,0.81c0.199,0.36 0.298,0.84 0.298,1.45v5.03h-1.173v-1.03h-0.06c-0.079,0.16 -0.212,0.34 -0.398,0.53c-0.185,0.19 -0.432,0.35 -0.74,0.48c-0.309,0.13 -0.685,0.2 -1.129,0.2zM443.249,487.12c0.464,0 0.855,-0.09 1.173,-0.27c0.322,-0.18 0.564,-0.42 0.726,-0.7c0.166,-0.29 0.249,-0.6 0.249,-0.91v-1.08c-0.05,0.06 -0.159,0.12 -0.328,0.17c-0.166,0.04 -0.358,0.08 -0.577,0.12c-0.216,0.03 -0.426,0.06 -0.631,0.09c-0.203,0.02 -0.367,0.04 -0.493,0.06c-0.305,0.04 -0.59,0.1 -0.855,0.19c-0.262,0.09 -0.474,0.22 -0.636,0.4c-0.159,0.17 -0.239,0.4 -0.239,0.7c0,0.41 0.151,0.72 0.453,0.93c0.305,0.2 0.691,0.3 1.158,0.3zM448.712,488v-7.64h1.133v1.16h0.08c0.139,-0.38 0.391,-0.69 0.755,-0.92c0.365,-0.24 0.776,-0.36 1.233,-0.36c0.086,0 0.194,0.01 0.323,0.01c0.13,0 0.227,0.01 0.294,0.01v1.2c-0.04,-0.01 -0.131,-0.03 -0.274,-0.05c-0.139,-0.02 -0.286,-0.03 -0.442,-0.03c-0.371,0 -0.703,0.08 -0.994,0.23c-0.289,0.15 -0.518,0.37 -0.687,0.64c-0.165,0.27 -0.248,0.57 -0.248,0.92v4.83zM456.79,488.16c-0.716,0 -1.332,-0.17 -1.849,-0.51c-0.517,-0.34 -0.915,-0.8 -1.193,-1.4c-0.279,-0.59 -0.418,-1.27 -0.418,-2.03c0,-0.77 0.143,-1.46 0.428,-2.05c0.288,-0.6 0.689,-1.06 1.203,-1.4c0.517,-0.34 1.12,-0.51 1.81,-0.51c0.536,0 1.02,0.1 1.451,0.3c0.431,0.2 0.784,0.48 1.059,0.84c0.275,0.36 0.446,0.77 0.512,1.25h-1.173c-0.09,-0.35 -0.288,-0.66 -0.597,-0.92c-0.305,-0.28 -0.716,-0.41 -1.233,-0.41c-0.457,0 -0.858,0.12 -1.203,0.36c-0.341,0.23 -0.608,0.56 -0.8,1c-0.189,0.42 -0.284,0.93 -0.284,1.5c0,0.59 0.093,1.11 0.279,1.54c0.189,0.44 0.454,0.78 0.795,1.02c0.345,0.24 0.749,0.37 1.213,0.37c0.305,0 0.582,-0.06 0.831,-0.16c0.248,-0.11 0.459,-0.26 0.631,-0.46c0.172,-0.2 0.295,-0.44 0.368,-0.72h1.173c-0.066,0.45 -0.23,0.86 -0.492,1.22c-0.258,0.36 -0.602,0.64 -1.029,0.86c-0.424,0.2 -0.918,0.31 -1.482,0.31zM462.682,483.41v4.59h-1.174v-10.18h1.174v3.74h0.099c0.179,-0.4 0.448,-0.71 0.806,-0.94c0.361,-0.24 0.841,-0.36 1.441,-0.36c0.521,0 0.976,0.11 1.368,0.32c0.391,0.2 0.694,0.52 0.909,0.95c0.219,0.42 0.328,0.96 0.328,1.62v4.85h-1.173v-4.77c0,-0.61 -0.157,-1.08 -0.472,-1.41c-0.312,-0.33 -0.744,-0.5 -1.298,-0.5c-0.384,0 -0.729,0.08 -1.034,0.24c-0.301,0.16 -0.54,0.4 -0.716,0.71c-0.172,0.31 -0.258,0.69 -0.258,1.14z" fill="#121927"/>
<path id="April" d="M605.728,488h-1.293l3.739,-10.18h1.272l3.739,10.18h-1.293l-3.042,-8.57h-0.08zM606.205,484.02h5.21v1.1h-5.21zM614.612,490.86v-10.5h1.133v1.22h0.14c0.086,-0.14 0.205,-0.3 0.358,-0.51c0.155,-0.21 0.377,-0.39 0.666,-0.56c0.291,-0.16 0.686,-0.25 1.183,-0.25c0.643,0 1.21,0.16 1.7,0.49c0.491,0.32 0.874,0.77 1.149,1.36c0.275,0.59 0.412,1.29 0.412,2.09c0,0.81 -0.137,1.51 -0.412,2.1c-0.275,0.59 -0.656,1.05 -1.144,1.38c-0.487,0.32 -1.049,0.48 -1.685,0.48c-0.491,0 -0.883,-0.08 -1.178,-0.24c-0.295,-0.17 -0.522,-0.36 -0.681,-0.57c-0.16,-0.21 -0.282,-0.38 -0.368,-0.52h-0.1v4.03zM615.765,484.18c0,0.58 0.085,1.09 0.254,1.53c0.169,0.44 0.416,0.78 0.741,1.03c0.324,0.24 0.722,0.37 1.193,0.37c0.49,0 0.9,-0.13 1.228,-0.39c0.331,-0.26 0.58,-0.62 0.746,-1.06c0.169,-0.44 0.253,-0.93 0.253,-1.48c0,-0.54 -0.083,-1.02 -0.248,-1.45c-0.163,-0.43 -0.41,-0.78 -0.741,-1.03c-0.328,-0.25 -0.741,-0.38 -1.238,-0.38c-0.477,0 -0.878,0.12 -1.203,0.36c-0.325,0.24 -0.57,0.57 -0.736,1.01c-0.166,0.42 -0.249,0.92 -0.249,1.49zM623.143,488v-7.64h1.134v1.16h0.079c0.139,-0.38 0.391,-0.69 0.754,-0.92c0.37,-0.24 0.78,-0.36 1.23,-0.36c0.09,0 0.2,0.01 0.33,0.01c0.13,0 0.23,0.01 0.29,0.01v1.2c-0.04,-0.01 -0.13,-0.03 -0.27,-0.05c-0.14,-0.02 -0.29,-0.03 -0.44,-0.03c-0.38,0 -0.71,0.08 -1,0.23c-0.287,0.15 -0.516,0.37 -0.685,0.64c-0.166,0.27 -0.249,0.57 -0.249,0.92v4.83zM628.35,488v-7.64h1.18v7.64zM628.95,479.09c-0.23,0 -0.43,-0.08 -0.59,-0.23c-0.17,-0.16 -0.25,-0.35 -0.25,-0.56c0,-0.22 0.08,-0.41 0.25,-0.57c0.16,-0.15 0.36,-0.23 0.59,-0.23c0.23,0 0.42,0.08 0.59,0.23c0.16,0.16 0.24,0.35 0.24,0.57c0,0.21 -0.08,0.4 -0.24,0.56c-0.17,0.15 -0.36,0.23 -0.59,0.23zM632.85,477.82v10.18h-1.18v-10.18z" fill="#121927"/>
<path id="May" d="M777.3,477.82h1.47l3.46,8.45h0.12l3.46,-8.45h1.47v10.18h-1.15v-7.74h-0.1l-3.18,7.74h-1.11l-3.19,-7.74h-0.1v7.74h-1.15zM791.84,488.18c-0.48,0 -0.92,-0.09 -1.31,-0.27c-0.4,-0.19 -0.71,-0.46 -0.94,-0.8c-0.23,-0.36 -0.35,-0.78 -0.35,-1.28c0,-0.44 0.09,-0.79 0.26,-1.06c0.17,-0.28 0.4,-0.49 0.69,-0.65c0.29,-0.15 0.61,-0.27 0.95,-0.35c0.35,-0.08 0.71,-0.14 1.06,-0.18c0.47,-0.06 0.84,-0.11 1.13,-0.14c0.29,-0.03 0.5,-0.09 0.64,-0.16c0.13,-0.08 0.2,-0.21 0.2,-0.4v-0.04c0,-0.49 -0.13,-0.87 -0.4,-1.14c-0.27,-0.28 -0.67,-0.41 -1.21,-0.41c-0.56,0 -1,0.12 -1.32,0.37c-0.32,0.24 -0.54,0.5 -0.67,0.78l-1.11,-0.4c0.2,-0.46 0.46,-0.82 0.79,-1.08c0.34,-0.26 0.7,-0.44 1.1,-0.55c0.4,-0.1 0.79,-0.16 1.17,-0.16c0.25,0 0.53,0.03 0.85,0.09c0.32,0.06 0.63,0.18 0.93,0.36c0.3,0.18 0.55,0.45 0.75,0.81c0.2,0.36 0.29,0.84 0.29,1.45v5.03h-1.17v-1.03h-0.06c-0.08,0.16 -0.21,0.34 -0.4,0.53c-0.18,0.19 -0.43,0.35 -0.74,0.48c-0.31,0.13 -0.68,0.2 -1.13,0.2zM792.02,487.12c0.47,0 0.86,-0.09 1.18,-0.27c0.32,-0.18 0.56,-0.42 0.72,-0.7c0.17,-0.29 0.25,-0.6 0.25,-0.91v-1.08c-0.05,0.06 -0.16,0.12 -0.33,0.17c-0.16,0.04 -0.35,0.08 -0.57,0.12c-0.22,0.03 -0.43,0.06 -0.64,0.09c-0.2,0.02 -0.36,0.04 -0.49,0.06c-0.3,0.04 -0.59,0.1 -0.85,0.19c-0.26,0.09 -0.48,0.22 -0.64,0.4c-0.16,0.17 -0.24,0.4 -0.24,0.7c0,0.41 0.15,0.72 0.46,0.93c0.3,0.2 0.69,0.3 1.15,0.3zM797.97,490.86c-0.2,0 -0.38,-0.01 -0.53,-0.05c-0.16,-0.03 -0.27,-0.06 -0.33,-0.09l0.3,-1.03c0.29,0.07 0.54,0.1 0.76,0.08c0.22,-0.02 0.41,-0.12 0.58,-0.29c0.17,-0.18 0.33,-0.46 0.47,-0.84l0.22,-0.6l-2.82,-7.68h1.27l2.11,6.09h0.08l2.1,-6.09h1.28l-3.24,8.75c-0.15,0.4 -0.33,0.72 -0.55,0.98c-0.21,0.26 -0.46,0.46 -0.75,0.58c-0.28,0.13 -0.6,0.19 -0.95,0.19z" fill="#121927"/>
<path id="June" d="M950.59,477.82h1.24v7.28c0,0.65 -0.12,1.2 -0.36,1.65c-0.24,0.46 -0.58,0.8 -1.01,1.04c-0.43,0.23 -0.95,0.35 -1.54,0.35c-0.55,0 -1.05,-0.1 -1.48,-0.3c-0.44,-0.21 -0.78,-0.5 -1.03,-0.88c-0.25,-0.38 -0.37,-0.83 -0.37,-1.35h1.21c0,0.29 0.07,0.54 0.22,0.76c0.14,0.21 0.34,0.38 0.59,0.5c0.25,0.12 0.54,0.18 0.86,0.18c0.36,0 0.66,-0.08 0.91,-0.23c0.25,-0.15 0.44,-0.37 0.56,-0.65c0.14,-0.3 0.2,-0.65 0.2,-1.07zM958.95,484.88v-4.52h1.17v7.64h-1.17v-1.29h-0.08c-0.18,0.39 -0.46,0.71 -0.83,0.99c-0.38,0.27 -0.86,0.4 -1.44,0.4c-0.47,0 -0.9,-0.1 -1.27,-0.31c-0.37,-0.22 -0.66,-0.53 -0.87,-0.96c-0.22,-0.43 -0.32,-0.96 -0.32,-1.61v-4.86h1.17v4.78c0,0.55 0.16,1 0.47,1.33c0.31,0.33 0.71,0.5 1.2,0.5c0.29,0 0.59,-0.08 0.89,-0.23c0.31,-0.15 0.56,-0.38 0.77,-0.68c0.21,-0.31 0.31,-0.7 0.31,-1.18zM963.45,483.41v4.59h-1.18v-7.64h1.14v1.2h0.1c0.18,-0.39 0.45,-0.7 0.81,-0.94c0.37,-0.24 0.84,-0.36 1.41,-0.36c0.52,0 0.97,0.11 1.36,0.32c0.39,0.21 0.69,0.53 0.91,0.96c0.21,0.42 0.32,0.96 0.32,1.61v4.85h-1.17v-4.77c0,-0.6 -0.16,-1.07 -0.47,-1.4c-0.31,-0.34 -0.74,-0.51 -1.28,-0.51c-0.38,0 -0.71,0.08 -1.01,0.24c-0.29,0.16 -0.52,0.4 -0.69,0.71c-0.17,0.31 -0.25,0.69 -0.25,1.14zM973.66,488.16c-0.73,0 -1.37,-0.16 -1.9,-0.49c-0.53,-0.33 -0.94,-0.78 -1.23,-1.37c-0.28,-0.59 -0.43,-1.28 -0.43,-2.06c0,-0.78 0.15,-1.47 0.43,-2.07c0.29,-0.6 0.69,-1.06 1.21,-1.4c0.51,-0.34 1.12,-0.51 1.8,-0.51c0.4,0 0.8,0.07 1.18,0.2c0.39,0.14 0.74,0.35 1.06,0.65c0.32,0.29 0.57,0.69 0.76,1.17c0.19,0.49 0.29,1.09 0.29,1.8v0.5h-5.89v-1.01h4.69c0,-0.44 -0.08,-0.82 -0.26,-1.16c-0.16,-0.34 -0.41,-0.6 -0.72,-0.8c-0.31,-0.19 -0.68,-0.29 -1.11,-0.29c-0.46,0 -0.87,0.11 -1.21,0.35c-0.34,0.22 -0.6,0.52 -0.78,0.89c-0.18,0.37 -0.27,0.76 -0.27,1.18v0.68c0,0.58 0.1,1.07 0.3,1.47c0.2,0.39 0.48,0.7 0.84,0.91c0.35,0.2 0.77,0.31 1.24,0.31c0.31,0 0.59,-0.05 0.84,-0.13c0.25,-0.09 0.47,-0.23 0.65,-0.4c0.18,-0.18 0.32,-0.4 0.42,-0.67l1.14,0.32c-0.12,0.38 -0.32,0.72 -0.6,1.01c-0.29,0.29 -0.63,0.52 -1.05,0.68c-0.41,0.16 -0.88,0.24 -1.4,0.24z" fill="#121927"/>
<g id="Frame 140">
<path id="2" d="M35.054,265v-0.89l3.361,-3.68c0.394,-0.43 0.719,-0.81 0.974,-1.13c0.255,-0.32 0.444,-0.62 0.567,-0.9c0.126,-0.29 0.189,-0.59 0.189,-0.9c0,-0.36 -0.086,-0.67 -0.259,-0.93c-0.169,-0.26 -0.401,-0.46 -0.696,-0.6c-0.295,-0.15 -0.626,-0.22 -0.994,-0.22c-0.391,0 -0.732,0.08 -1.024,0.25c-0.288,0.16 -0.512,0.38 -0.671,0.67c-0.156,0.29 -0.234,0.62 -0.234,1.01h-1.173c0,-0.59 0.137,-1.12 0.412,-1.57c0.275,-0.45 0.65,-0.8 1.124,-1.05c0.477,-0.26 1.013,-0.38 1.606,-0.38c0.596,0 1.125,0.12 1.586,0.38c0.46,0.25 0.822,0.59 1.084,1.02c0.261,0.42 0.392,0.9 0.392,1.42c0,0.38 -0.068,0.74 -0.204,1.1c-0.132,0.36 -0.364,0.75 -0.696,1.19c-0.328,0.43 -0.783,0.96 -1.367,1.59l-2.287,2.45v0.08h4.733v1.09z" fill="#121927"/>
<path id="Vector 16" d="M67,259.5h923.5" stroke="#A0A0AA" stroke-opacity="0.7" stroke-width="0.8" stroke-dasharray="9 9"/>
</g>
<path id="4.5" d="M34.815,62.91v-1.01l4.475,-7.08h0.736v1.57h-0.498l-3.38,5.35v0.08h6.025v1.09zM39.608,65v-2.4v-0.47v-7.31h1.173v10.18zM44.433,65.08c-0.245,0 -0.456,-0.09 -0.632,-0.26c-0.175,-0.18 -0.263,-0.39 -0.263,-0.64c0,-0.24 0.088,-0.45 0.263,-0.63c0.176,-0.17 0.387,-0.26 0.632,-0.26c0.245,0 0.456,0.09 0.631,0.26c0.176,0.18 0.264,0.39 0.264,0.63c0,0.17 -0.042,0.32 -0.125,0.45c-0.079,0.14 -0.187,0.25 -0.323,0.33c-0.132,0.08 -0.281,0.12 -0.447,0.12zM50.39,65.14c-0.583,0 -1.109,-0.12 -1.576,-0.35c-0.467,-0.23 -0.842,-0.55 -1.123,-0.95c-0.282,-0.41 -0.436,-0.87 -0.463,-1.39h1.193c0.047,0.47 0.256,0.85 0.627,1.15c0.374,0.3 0.822,0.45 1.342,0.45c0.418,0 0.789,-0.1 1.114,-0.3c0.328,-0.19 0.585,-0.46 0.77,-0.8c0.189,-0.35 0.284,-0.74 0.284,-1.17c0,-0.45 -0.098,-0.84 -0.294,-1.19c-0.192,-0.35 -0.457,-0.63 -0.795,-0.83c-0.338,-0.2 -0.724,-0.3 -1.158,-0.31c-0.312,0 -0.632,0.05 -0.96,0.15c-0.328,0.09 -0.598,0.22 -0.81,0.37l-1.154,-0.14l0.617,-5.01h5.29v1.09h-4.256l-0.358,3h0.06c0.208,-0.16 0.47,-0.3 0.785,-0.41c0.315,-0.11 0.643,-0.16 0.984,-0.16c0.624,0 1.179,0.15 1.666,0.45c0.49,0.29 0.875,0.69 1.153,1.21c0.282,0.51 0.423,1.1 0.423,1.76c0,0.65 -0.146,1.23 -0.438,1.74c-0.288,0.51 -0.686,0.91 -1.193,1.2c-0.507,0.29 -1.084,0.44 -1.73,0.44z" fill="#121927"/>
<g id="BarGroup">
<g id="BarBlock">
<path id="BarStrip" opacity="0.8" d="M260,328c0,-9.39 7.611,-17 17,-17c9.389,0 17,7.61 17,17v130h-34z" fill="#0B91D6"/>
<g id="Frame 384">
<rect x="261" y="286" width="32" height="17" rx="8.5" fill="#0B91D6" fill-opacity="0.1"/>
<path id="1" d="M277.634,289.82v10.18h-1.233v-8.89h-0.06l-2.486,1.65v-1.25l2.546,-1.69z" fill="black"/>
</g>
</g>
</g>
<g id="Frame 384_2">
<rect x="432" y="154" width="32" height="17" rx="8.5" fill="#0B91D6" fill-opacity="0.1"/>
<path id="3" d="M448.494,168.14c-0.656,0 -1.241,-0.11 -1.755,-0.34c-0.51,-0.22 -0.916,-0.54 -1.218,-0.94c-0.298,-0.4 -0.46,-0.87 -0.487,-1.41h1.253c0.026,0.33 0.139,0.62 0.338,0.85c0.199,0.24 0.459,0.42 0.781,0.55c0.321,0.13 0.677,0.2 1.068,0.2c0.438,0 0.826,-0.08 1.164,-0.23c0.338,-0.16 0.603,-0.37 0.795,-0.64c0.192,-0.27 0.289,-0.59 0.289,-0.94c0,-0.38 -0.093,-0.71 -0.279,-0.99c-0.185,-0.29 -0.457,-0.52 -0.815,-0.68c-0.358,-0.16 -0.796,-0.24 -1.313,-0.24h-0.815v-1.1h0.815c0.405,0 0.759,-0.07 1.064,-0.22c0.309,-0.14 0.549,-0.35 0.721,-0.61c0.176,-0.27 0.264,-0.58 0.264,-0.94c0,-0.34 -0.077,-0.64 -0.229,-0.9c-0.153,-0.25 -0.368,-0.45 -0.646,-0.59c-0.275,-0.15 -0.6,-0.22 -0.975,-0.22c-0.351,0 -0.683,0.07 -0.994,0.2c-0.308,0.12 -0.56,0.31 -0.756,0.55c-0.195,0.24 -0.301,0.53 -0.318,0.86h-1.193c0.02,-0.53 0.18,-1 0.482,-1.4c0.302,-0.4 0.696,-0.72 1.183,-0.94c0.491,-0.23 1.029,-0.34 1.616,-0.34c0.63,0 1.17,0.13 1.621,0.38c0.451,0.25 0.797,0.59 1.039,1c0.242,0.42 0.363,0.86 0.363,1.34c0,0.58 -0.151,1.07 -0.453,1.47c-0.298,0.4 -0.704,0.68 -1.218,0.84v0.08c0.643,0.11 1.145,0.38 1.507,0.82c0.361,0.44 0.542,0.98 0.542,1.63c0,0.55 -0.151,1.05 -0.453,1.49c-0.298,0.43 -0.706,0.78 -1.223,1.03c-0.517,0.25 -1.105,0.38 -1.765,0.38z" fill="black"/>
</g>
<g id="BarGroup_2">
<g id="BarBlock_2">
<g id="SingleBar">
<path id="BarStrip_2" opacity="0.8" d="M97,264c0,-9.39 7.611,-17 17,-17c9.389,0 17,7.61 17,17v196h-34z" fill="#0B91D6"/>
</g>
<g id="Frame 384_3">
<rect x="101" y="207" width="32" height="17" rx="8.5" fill="#0B91D6" fill-opacity="0.1"/>
<path id="2_2" d="M114.054,221v-0.89l3.361,-3.68c0.394,-0.43 0.719,-0.81 0.974,-1.13c0.255,-0.32 0.444,-0.62 0.567,-0.9c0.126,-0.29 0.189,-0.59 0.189,-0.9c0,-0.36 -0.086,-0.67 -0.259,-0.93c-0.169,-0.26 -0.401,-0.46 -0.696,-0.6c-0.295,-0.15 -0.626,-0.22 -0.994,-0.22c-0.391,0 -0.732,0.08 -1.024,0.25c-0.288,0.16 -0.512,0.38 -0.671,0.67c-0.156,0.29 -0.234,0.62 -0.234,1.01h-1.173c0,-0.59 0.137,-1.12 0.412,-1.57c0.275,-0.45 0.65,-0.8 1.124,-1.05c0.477,-0.26 1.013,-0.38 1.606,-0.38c0.596,0 1.125,0.12 1.586,0.38c0.46,0.25 0.822,0.59 1.084,1.02c0.261,0.42 0.392,0.9 0.392,1.42c0,0.38 -0.068,0.74 -0.204,1.1c-0.132,0.36 -0.364,0.75 -0.696,1.19c-0.328,0.43 -0.783,0.96 -1.367,1.59l-2.287,2.45v0.08h4.733v1.09z" fill="black"/>
</g>
</g>
</g>
<g id="BarGroup_3">
<g id="BarBlock_3">
<g id="SingleBar_2">
<path id="BarStrip_3" opacity="0.8" d="M431,196c0,-9.39 7.611,-17 17,-17c9.389,0 17,7.61 17,17v263h-34z" fill="#0B91D6"/>
</g>
</g>
</g>
<g id="BarGroup_4">
<g id="BarBlock_4">
<g id="SingleBar_3">
<path id="BarStrip_4" opacity="0.8" d="M602,410c0,-9.39 7.611,-17 17,-17c9.39,0 17,7.61 17,17v49h-34z" fill="#0B91D6"/>
</g>
<g id="SingleBar_4">
<g id="Frame 385">
<rect x="603" y="368" width="32" height="17" rx="8.5" fill="#0B91D6" fill-opacity="0.1"/>
<path id="1_2" d="M619.634,371.82v10.18h-1.233v-8.89h-0.06l-2.486,1.65v-1.25l2.546,-1.69z" fill="black"/>
</g>
</g>
</g>
</g>
<g id="BarGroup_5">
<g id="BarBlock_5">
<g id="SingleBar_5">
<path id="BarStrip_5" opacity="0.8" d="M773,249c0,-9.39 7.61,-17 17,-17c9.39,0 17,7.61 17,17v210h-34z" fill="#0B91D6"/>
</g>
<g id="Frame 385_2">
<rect x="774" y="207" width="32" height="17" rx="8.5" fill="#0B91D6" fill-opacity="0.1"/>
<path id="2_3" d="M787.05,221v-0.89l3.36,-3.68c0.4,-0.43 0.72,-0.81 0.98,-1.13c0.25,-0.32 0.44,-0.62 0.57,-0.9c0.12,-0.29 0.18,-0.59 0.18,-0.9c0,-0.36 -0.08,-0.67 -0.25,-0.93c-0.17,-0.26 -0.4,-0.46 -0.7,-0.6c-0.29,-0.15 -0.63,-0.22 -0.99,-0.22c-0.4,0 -0.74,0.08 -1.03,0.25c-0.29,0.16 -0.51,0.38 -0.67,0.67c-0.16,0.29 -0.23,0.62 -0.23,1.01h-1.18c0,-0.59 0.14,-1.12 0.42,-1.57c0.27,-0.45 0.65,-0.8 1.12,-1.05c0.48,-0.26 1.01,-0.38 1.61,-0.38c0.59,0 1.12,0.12 1.58,0.38c0.46,0.25 0.82,0.59 1.09,1.02c0.26,0.42 0.39,0.9 0.39,1.42c0,0.38 -0.07,0.74 -0.21,1.1c-0.13,0.36 -0.36,0.75 -0.69,1.19c-0.33,0.43 -0.79,0.96 -1.37,1.59l-2.29,2.45v0.08h4.74v1.09z" fill="black"/>
</g>
</g>
</g>
<g id="BarGroup_6">
<g id="BarBlock_6">
<g id="SingleBar_6">
<path id="BarStrip_6" opacity="0.8" d="M944,397.19c0,-9.39 7.61,-17 17,-17c9.39,0 17,7.61 17,17v61.48h-34z" fill="#0B91D6"/>
</g>
<g id="SingleBar_7">
<g id="Frame 385_3">
<rect x="945" y="355" width="32" height="17" rx="8.5" fill="#0B91D6" fill-opacity="0.1"/>
<path id="1_3" d="M961.63,358.82v10.18h-1.23v-8.89h-0.06l-2.48,1.65v-1.25l2.54,-1.69z" fill="black"/>
</g>
</g>
</g>
</g>
<g id="Frame 392_2">
<g id="Frame 386_2">
<rect id="Rectangle 32_4" x="345" y="547.5" width="8" height="8" fill="#0B91D6"/>
<path id="5 Star" d="M363.236,557.14c-0.584,0 -1.109,-0.12 -1.576,-0.35c-0.468,-0.23 -0.842,-0.55 -1.124,-0.95c-0.282,-0.41 -0.436,-0.87 -0.462,-1.39h1.193c0.046,0.47 0.255,0.85 0.626,1.15c0.375,0.3 0.822,0.45 1.343,0.45c0.417,0 0.789,-0.1 1.113,-0.3c0.329,-0.19 0.585,-0.46 0.771,-0.8c0.189,-0.35 0.283,-0.74 0.283,-1.17c0,-0.45 -0.097,-0.84 -0.293,-1.19c-0.192,-0.35 -0.457,-0.63 -0.795,-0.83c-0.338,-0.2 -0.725,-0.3 -1.159,-0.31c-0.311,0 -0.631,0.05 -0.959,0.15c-0.328,0.09 -0.599,0.22 -0.811,0.37l-1.153,-0.14l0.616,-5.01h5.29v1.09h-4.255l-0.358,3h0.059c0.209,-0.16 0.471,-0.3 0.786,-0.41c0.315,-0.11 0.643,-0.16 0.984,-0.16c0.623,0 1.178,0.15 1.666,0.45c0.49,0.29 0.875,0.69 1.153,1.21c0.282,0.51 0.423,1.1 0.423,1.76c0,0.65 -0.146,1.23 -0.438,1.74c-0.288,0.51 -0.686,0.91 -1.193,1.2c-0.507,0.29 -1.084,0.44 -1.73,0.44zM378.256,549.36c-0.059,-0.5 -0.301,-0.89 -0.726,-1.17c-0.424,-0.28 -0.944,-0.42 -1.561,-0.42c-0.45,0 -0.845,0.08 -1.183,0.22c-0.335,0.15 -0.597,0.35 -0.785,0.6c-0.186,0.26 -0.279,0.55 -0.279,0.87c0,0.27 0.065,0.51 0.194,0.7c0.133,0.2 0.302,0.36 0.507,0.49c0.206,0.12 0.421,0.23 0.646,0.31c0.226,0.08 0.433,0.14 0.622,0.19l1.034,0.28c0.265,0.07 0.56,0.17 0.885,0.29c0.328,0.12 0.641,0.29 0.94,0.5c0.301,0.21 0.55,0.48 0.745,0.81c0.196,0.33 0.294,0.73 0.294,1.21c0,0.55 -0.145,1.04 -0.433,1.49c-0.285,0.44 -0.703,0.79 -1.253,1.06c-0.547,0.26 -1.211,0.39 -1.993,0.39c-0.73,0 -1.361,-0.12 -1.895,-0.35c-0.53,-0.24 -0.947,-0.57 -1.252,-0.99c-0.302,-0.42 -0.473,-0.91 -0.512,-1.46h1.272c0.033,0.38 0.163,0.7 0.388,0.95c0.229,0.25 0.517,0.43 0.865,0.56c0.351,0.12 0.729,0.18 1.134,0.18c0.47,0 0.893,-0.08 1.267,-0.23c0.375,-0.16 0.672,-0.37 0.89,-0.65c0.219,-0.28 0.328,-0.6 0.328,-0.97c0,-0.34 -0.094,-0.62 -0.283,-0.83c-0.189,-0.21 -0.437,-0.38 -0.746,-0.52c-0.308,-0.13 -0.641,-0.25 -0.999,-0.34l-1.253,-0.36c-0.795,-0.23 -1.425,-0.56 -1.889,-0.98c-0.464,-0.43 -0.696,-0.98 -0.696,-1.67c0,-0.57 0.154,-1.06 0.462,-1.49c0.312,-0.43 0.729,-0.76 1.253,-0.99c0.527,-0.24 1.115,-0.36 1.765,-0.36c0.656,0 1.24,0.12 1.75,0.35c0.51,0.23 0.915,0.55 1.213,0.96c0.302,0.4 0.461,0.86 0.477,1.37zM384.778,549.36v1h-3.958v-1zM381.974,547.53h1.173v7.28c0,0.33 0.048,0.58 0.144,0.75c0.1,0.16 0.226,0.27 0.378,0.33c0.156,0.05 0.32,0.08 0.492,0.08c0.129,0 0.236,-0.01 0.318,-0.02c0.083,-0.02 0.15,-0.03 0.199,-0.04l0.239,1.05c-0.08,0.03 -0.191,0.06 -0.333,0.09c-0.143,0.03 -0.323,0.05 -0.542,0.05c-0.332,0 -0.656,-0.07 -0.975,-0.21c-0.314,-0.15 -0.576,-0.36 -0.785,-0.66c-0.206,-0.29 -0.308,-0.66 -0.308,-1.1zM388.79,557.18c-0.484,0 -0.923,-0.09 -1.318,-0.27c-0.394,-0.19 -0.707,-0.46 -0.939,-0.8c-0.232,-0.36 -0.348,-0.78 -0.348,-1.28c0,-0.44 0.086,-0.79 0.258,-1.06c0.173,-0.28 0.403,-0.49 0.691,-0.65c0.289,-0.15 0.607,-0.27 0.955,-0.35c0.351,-0.08 0.704,-0.14 1.059,-0.18c0.464,-0.06 0.84,-0.11 1.128,-0.14c0.292,-0.03 0.504,-0.09 0.637,-0.16c0.136,-0.08 0.203,-0.21 0.203,-0.4v-0.04c0,-0.49 -0.134,-0.87 -0.402,-1.14c-0.265,-0.28 -0.668,-0.41 -1.208,-0.41c-0.56,0 -1,0.12 -1.318,0.37c-0.318,0.24 -0.542,0.5 -0.671,0.78l-1.114,-0.4c0.199,-0.46 0.464,-0.82 0.796,-1.08c0.335,-0.26 0.699,-0.44 1.094,-0.55c0.397,-0.1 0.788,-0.16 1.173,-0.16c0.245,0 0.527,0.03 0.845,0.09c0.322,0.06 0.631,0.18 0.93,0.36c0.301,0.18 0.552,0.45 0.75,0.81c0.199,0.36 0.299,0.84 0.299,1.45v5.03h-1.174v-1.03h-0.059c-0.08,0.16 -0.212,0.34 -0.398,0.53c-0.186,0.19 -0.432,0.35 -0.741,0.48c-0.308,0.13 -0.684,0.2 -1.128,0.2zM388.969,556.12c0.464,0 0.855,-0.09 1.173,-0.27c0.322,-0.18 0.563,-0.42 0.726,-0.7c0.166,-0.29 0.248,-0.6 0.248,-0.91v-1.08c-0.049,0.06 -0.159,0.12 -0.328,0.17c-0.165,0.04 -0.358,0.08 -0.576,0.12c-0.216,0.03 -0.426,0.06 -0.632,0.09c-0.202,0.02 -0.366,0.04 -0.492,0.06c-0.305,0.04 -0.59,0.1 -0.855,0.19c-0.262,0.09 -0.474,0.22 -0.636,0.4c-0.159,0.17 -0.239,0.4 -0.239,0.7c0,0.41 0.151,0.72 0.452,0.93c0.305,0.2 0.691,0.3 1.159,0.3zM394.431,557v-7.64h1.134v1.16h0.079c0.14,-0.38 0.391,-0.69 0.756,-0.92c0.365,-0.24 0.776,-0.36 1.233,-0.36c0.086,0 0.194,0.01 0.323,0.01c0.129,0 0.227,0.01 0.293,0.01v1.2c-0.039,-0.01 -0.13,-0.03 -0.273,-0.05c-0.139,-0.02 -0.287,-0.03 -0.442,-0.03c-0.372,0 -0.703,0.08 -0.995,0.23c-0.288,0.15 -0.517,0.37 -0.686,0.64c-0.166,0.27 -0.248,0.57 -0.248,0.92v4.83z" fill="black"/>
</g>
<g id="Frame 387_2">
<rect id="Rectangle 32_5" x="413" y="547.5" width="8" height="8" fill="#34A853"/>
<path id="4 Star" d="M427.815,554.91v-1.01l4.475,-7.08h0.736v1.57h-0.498l-3.38,5.35v0.08h6.025v1.09zM432.608,557v-2.4v-0.47v-7.31h1.173v10.18zM446.721,549.36c-0.06,-0.5 -0.302,-0.89 -0.726,-1.17c-0.424,-0.28 -0.944,-0.42 -1.561,-0.42c-0.451,0 -0.845,0.08 -1.183,0.22c-0.335,0.15 -0.597,0.35 -0.786,0.6c-0.185,0.26 -0.278,0.55 -0.278,0.87c0,0.27 0.065,0.51 0.194,0.7c0.132,0.2 0.301,0.36 0.507,0.49c0.205,0.12 0.421,0.23 0.646,0.31c0.226,0.08 0.433,0.14 0.622,0.19l1.034,0.28c0.265,0.07 0.56,0.17 0.885,0.29c0.328,0.12 0.641,0.29 0.939,0.5c0.302,0.21 0.551,0.48 0.746,0.81c0.196,0.33 0.293,0.73 0.293,1.21c0,0.55 -0.144,1.04 -0.432,1.49c-0.285,0.44 -0.703,0.79 -1.253,1.06c-0.547,0.26 -1.211,0.39 -1.994,0.39c-0.729,0 -1.36,-0.12 -1.894,-0.35c-0.53,-0.24 -0.948,-0.57 -1.253,-0.99c-0.301,-0.42 -0.472,-0.91 -0.512,-1.46h1.273c0.033,0.38 0.163,0.7 0.388,0.95c0.229,0.25 0.517,0.43 0.865,0.56c0.351,0.12 0.729,0.18 1.133,0.18c0.471,0 0.894,-0.08 1.268,-0.23c0.375,-0.16 0.671,-0.37 0.89,-0.65c0.219,-0.28 0.328,-0.6 0.328,-0.97c0,-0.34 -0.094,-0.62 -0.283,-0.83c-0.189,-0.21 -0.438,-0.38 -0.746,-0.52c-0.308,-0.13 -0.641,-0.25 -0.999,-0.34l-1.253,-0.36c-0.795,-0.23 -1.425,-0.56 -1.889,-0.98c-0.464,-0.43 -0.696,-0.98 -0.696,-1.67c0,-0.57 0.154,-1.06 0.462,-1.49c0.312,-0.43 0.729,-0.76 1.253,-0.99c0.527,-0.24 1.115,-0.36 1.765,-0.36c0.656,0 1.239,0.12 1.75,0.35c0.51,0.23 0.915,0.55 1.213,0.96c0.302,0.4 0.461,0.86 0.477,1.37zM453.243,549.36v1h-3.958v-1zM450.439,547.53h1.173v7.28c0,0.33 0.048,0.58 0.144,0.75c0.099,0.16 0.225,0.27 0.378,0.33c0.156,0.05 0.32,0.08 0.492,0.08c0.129,0 0.235,-0.01 0.318,-0.02c0.083,-0.02 0.149,-0.03 0.199,-0.04l0.239,1.05c-0.08,0.03 -0.191,0.06 -0.333,0.09c-0.143,0.03 -0.324,0.05 -0.542,0.05c-0.332,0 -0.657,-0.07 -0.975,-0.21c-0.315,-0.15 -0.576,-0.36 -0.785,-0.66c-0.206,-0.29 -0.308,-0.66 -0.308,-1.1zM457.255,557.18c-0.484,0 -0.923,-0.09 -1.318,-0.27c-0.394,-0.19 -0.707,-0.46 -0.939,-0.8c-0.232,-0.36 -0.348,-0.78 -0.348,-1.28c0,-0.44 0.086,-0.79 0.258,-1.06c0.172,-0.28 0.403,-0.49 0.691,-0.65c0.288,-0.15 0.607,-0.27 0.955,-0.35c0.351,-0.08 0.704,-0.14 1.059,-0.18c0.464,-0.06 0.84,-0.11 1.128,-0.14c0.292,-0.03 0.504,-0.09 0.636,-0.16c0.136,-0.08 0.204,-0.21 0.204,-0.4v-0.04c0,-0.49 -0.134,-0.87 -0.402,-1.14c-0.266,-0.28 -0.668,-0.41 -1.208,-0.41c-0.561,0 -1,0.12 -1.318,0.37c-0.318,0.24 -0.542,0.5 -0.671,0.78l-1.114,-0.4c0.199,-0.46 0.464,-0.82 0.796,-1.08c0.334,-0.26 0.699,-0.44 1.093,-0.55c0.398,-0.1 0.789,-0.16 1.174,-0.16c0.245,0 0.527,0.03 0.845,0.09c0.321,0.06 0.631,0.18 0.93,0.36c0.301,0.18 0.551,0.45 0.75,0.81c0.199,0.36 0.299,0.84 0.299,1.45v5.03h-1.174v-1.03h-0.059c-0.08,0.16 -0.212,0.34 -0.398,0.53c-0.186,0.19 -0.433,0.35 -0.741,0.48c-0.308,0.13 -0.684,0.2 -1.128,0.2zM457.434,556.12c0.464,0 0.855,-0.09 1.173,-0.27c0.321,-0.18 0.563,-0.42 0.726,-0.7c0.165,-0.29 0.248,-0.6 0.248,-0.91v-1.08c-0.049,0.06 -0.159,0.12 -0.328,0.17c-0.166,0.04 -0.358,0.08 -0.577,0.12c-0.215,0.03 -0.425,0.06 -0.631,0.09c-0.202,0.02 -0.366,0.04 -0.492,0.06c-0.305,0.04 -0.59,0.1 -0.855,0.19c-0.262,0.09 -0.474,0.22 -0.637,0.4c-0.159,0.17 -0.238,0.4 -0.238,0.7c0,0.41 0.151,0.72 0.452,0.93c0.305,0.2 0.691,0.3 1.159,0.3zM462.896,557v-7.64h1.134v1.16h0.079c0.139,-0.38 0.391,-0.69 0.756,-0.92c0.364,-0.24 0.775,-0.36 1.233,-0.36c0.086,0 0.194,0.01 0.323,0.01c0.129,0 0.227,0.01 0.293,0.01v1.2c-0.039,-0.01 -0.131,-0.03 -0.273,-0.05c-0.139,-0.02 -0.287,-0.03 -0.443,-0.03c-0.371,0 -0.702,0.08 -0.994,0.23c-0.288,0.15 -0.517,0.37 -0.686,0.64c-0.166,0.27 -0.249,0.57 -0.249,0.92v4.83z" fill="black"/>
</g>
<g id="Frame 388">
<rect id="Rectangle 32_6" x="482" y="547.5" width="8" height="8" fill="#0044C9"/>
<path id="3 Star" d="M500.494,557.14c-0.656,0 -1.241,-0.11 -1.755,-0.34c-0.51,-0.22 -0.916,-0.54 -1.218,-0.94c-0.298,-0.4 -0.46,-0.87 -0.487,-1.41h1.253c0.026,0.33 0.139,0.62 0.338,0.85c0.199,0.24 0.459,0.42 0.781,0.55c0.321,0.13 0.677,0.2 1.068,0.2c0.438,0 0.826,-0.08 1.164,-0.23c0.338,-0.16 0.603,-0.37 0.795,-0.64c0.192,-0.27 0.289,-0.59 0.289,-0.94c0,-0.38 -0.093,-0.71 -0.279,-0.99c-0.185,-0.29 -0.457,-0.52 -0.815,-0.68c-0.358,-0.16 -0.796,-0.24 -1.313,-0.24h-0.815v-1.1h0.815c0.405,0 0.759,-0.07 1.064,-0.22c0.309,-0.14 0.549,-0.35 0.721,-0.61c0.176,-0.27 0.264,-0.58 0.264,-0.94c0,-0.34 -0.077,-0.64 -0.229,-0.9c-0.153,-0.25 -0.368,-0.45 -0.646,-0.59c-0.275,-0.15 -0.6,-0.22 -0.975,-0.22c-0.351,0 -0.683,0.07 -0.994,0.2c-0.308,0.12 -0.56,0.31 -0.756,0.55c-0.195,0.24 -0.301,0.53 -0.318,0.86h-1.193c0.02,-0.53 0.18,-1 0.482,-1.4c0.302,-0.4 0.696,-0.72 1.183,-0.94c0.491,-0.23 1.029,-0.34 1.616,-0.34c0.63,0 1.17,0.13 1.621,0.38c0.451,0.25 0.797,0.59 1.039,1c0.242,0.42 0.363,0.86 0.363,1.34c0,0.58 -0.151,1.07 -0.453,1.47c-0.298,0.4 -0.704,0.68 -1.218,0.84v0.08c0.643,0.11 1.145,0.38 1.507,0.82c0.361,0.44 0.542,0.98 0.542,1.63c0,0.55 -0.151,1.05 -0.453,1.49c-0.298,0.43 -0.706,0.78 -1.223,1.03c-0.517,0.25 -1.105,0.38 -1.765,0.38zM515.653,549.36c-0.06,-0.5 -0.302,-0.89 -0.726,-1.17c-0.424,-0.28 -0.945,-0.42 -1.561,-0.42c-0.451,0 -0.845,0.08 -1.183,0.22c-0.335,0.15 -0.597,0.35 -0.786,0.6c-0.186,0.26 -0.278,0.55 -0.278,0.87c0,0.27 0.064,0.51 0.193,0.7c0.133,0.2 0.302,0.36 0.508,0.49c0.205,0.12 0.421,0.23 0.646,0.31c0.225,0.08 0.432,0.14 0.621,0.19l1.034,0.28c0.266,0.07 0.561,0.17 0.885,0.29c0.329,0.12 0.642,0.29 0.94,0.5c0.302,0.21 0.55,0.48 0.746,0.81c0.195,0.33 0.293,0.73 0.293,1.21c0,0.55 -0.144,1.04 -0.432,1.49c-0.285,0.44 -0.703,0.79 -1.253,1.06c-0.547,0.26 -1.212,0.39 -1.994,0.39c-0.729,0 -1.36,-0.12 -1.894,-0.35c-0.53,-0.24 -0.948,-0.57 -1.253,-0.99c-0.302,-0.42 -0.472,-0.91 -0.512,-1.46h1.273c0.033,0.38 0.162,0.7 0.388,0.95c0.228,0.25 0.517,0.43 0.865,0.56c0.351,0.12 0.729,0.18 1.133,0.18c0.471,0 0.893,-0.08 1.268,-0.23c0.374,-0.16 0.671,-0.37 0.89,-0.65c0.219,-0.28 0.328,-0.6 0.328,-0.97c0,-0.34 -0.095,-0.62 -0.283,-0.83c-0.189,-0.21 -0.438,-0.38 -0.746,-0.52c-0.308,-0.13 -0.642,-0.25 -1,-0.34l-1.252,-0.36c-0.796,-0.23 -1.426,-0.56 -1.89,-0.98c-0.464,-0.43 -0.696,-0.98 -0.696,-1.67c0,-0.57 0.155,-1.06 0.463,-1.49c0.311,-0.43 0.729,-0.76 1.253,-0.99c0.527,-0.24 1.115,-0.36 1.765,-0.36c0.656,0 1.239,0.12 1.75,0.35c0.51,0.23 0.914,0.55 1.213,0.96c0.301,0.4 0.46,0.86 0.477,1.37zM522.174,549.36v1h-3.957v-1zM519.37,547.53h1.174v7.28c0,0.33 0.048,0.58 0.144,0.75c0.099,0.16 0.225,0.27 0.378,0.33c0.155,0.05 0.319,0.08 0.492,0.08c0.129,0 0.235,-0.01 0.318,-0.02c0.083,-0.02 0.149,-0.03 0.199,-0.04l0.238,1.05c-0.079,0.03 -0.19,0.06 -0.333,0.09c-0.142,0.03 -0.323,0.05 -0.542,0.05c-0.331,0 -0.656,-0.07 -0.974,-0.21c-0.315,-0.15 -0.577,-0.36 -0.786,-0.66c-0.205,-0.29 -0.308,-0.66 -0.308,-1.1zM526.186,557.18c-0.484,0 -0.923,-0.09 -1.317,-0.27c-0.395,-0.19 -0.708,-0.46 -0.94,-0.8c-0.232,-0.36 -0.348,-0.78 -0.348,-1.28c0,-0.44 0.086,-0.79 0.259,-1.06c0.172,-0.28 0.402,-0.49 0.691,-0.65c0.288,-0.15 0.606,-0.27 0.954,-0.35c0.352,-0.08 0.705,-0.14 1.059,-0.18c0.464,-0.06 0.84,-0.11 1.129,-0.14c0.291,-0.03 0.504,-0.09 0.636,-0.16c0.136,-0.08 0.204,-0.21 0.204,-0.4v-0.04c0,-0.49 -0.134,-0.87 -0.403,-1.14c-0.265,-0.28 -0.668,-0.41 -1.208,-0.41c-0.56,0 -0.999,0.12 -1.317,0.37c-0.318,0.24 -0.542,0.5 -0.671,0.78l-1.114,-0.4c0.199,-0.46 0.464,-0.82 0.795,-1.08c0.335,-0.26 0.7,-0.44 1.094,-0.55c0.398,-0.1 0.789,-0.16 1.173,-0.16c0.246,0 0.527,0.03 0.846,0.09c0.321,0.06 0.631,0.18 0.929,0.36c0.302,0.18 0.552,0.45 0.751,0.81c0.199,0.36 0.298,0.84 0.298,1.45v5.03h-1.173v-1.03h-0.06c-0.079,0.16 -0.212,0.34 -0.397,0.53c-0.186,0.19 -0.433,0.35 -0.741,0.48c-0.308,0.13 -0.685,0.2 -1.129,0.2zM526.365,556.12c0.464,0 0.855,-0.09 1.174,-0.27c0.321,-0.18 0.563,-0.42 0.725,-0.7c0.166,-0.29 0.249,-0.6 0.249,-0.91v-1.08c-0.05,0.06 -0.159,0.12 -0.328,0.17c-0.166,0.04 -0.358,0.08 -0.577,0.12c-0.215,0.03 -0.426,0.06 -0.631,0.09c-0.202,0.02 -0.367,0.04 -0.492,0.06c-0.305,0.04 -0.59,0.1 -0.856,0.19c-0.261,0.09 -0.474,0.22 -0.636,0.4c-0.159,0.17 -0.239,0.4 -0.239,0.7c0,0.41 0.151,0.72 0.453,0.93c0.305,0.2 0.691,0.3 1.158,0.3zM531.828,557v-7.64h1.133v1.16h0.08c0.139,-0.38 0.391,-0.69 0.756,-0.92c0.364,-0.24 0.775,-0.36 1.232,-0.36c0.087,0 0.194,0.01 0.324,0.01c0.129,0 0.227,0.01 0.293,0.01v1.2c-0.04,-0.01 -0.131,-0.03 -0.273,-0.05c-0.14,-0.02 -0.287,-0.03 -0.443,-0.03c-0.371,0 -0.703,0.08 -0.994,0.23c-0.289,0.15 -0.517,0.37 -0.686,0.64c-0.166,0.27 -0.249,0.57 -0.249,0.92v4.83z" fill="black"/>
</g>
<g id="Frame 389">
<rect id="Rectangle 32_7" x="550" y="547.5" width="8" height="8" fill="#FBBC05"/>
<path id="2 Star" d="M565.054,557v-0.89l3.361,-3.68c0.394,-0.43 0.719,-0.81 0.974,-1.13c0.255,-0.32 0.444,-0.62 0.567,-0.9c0.126,-0.29 0.189,-0.59 0.189,-0.9c0,-0.36 -0.086,-0.67 -0.259,-0.93c-0.169,-0.26 -0.401,-0.46 -0.696,-0.6c-0.295,-0.15 -0.626,-0.22 -0.994,-0.22c-0.391,0 -0.732,0.08 -1.024,0.25c-0.288,0.16 -0.512,0.38 -0.671,0.67c-0.156,0.29 -0.234,0.62 -0.234,1.01h-1.173c0,-0.59 0.137,-1.12 0.412,-1.57c0.275,-0.45 0.65,-0.8 1.124,-1.05c0.477,-0.26 1.013,-0.38 1.606,-0.38c0.596,0 1.125,0.12 1.586,0.38c0.46,0.25 0.822,0.59 1.084,1.02c0.261,0.42 0.392,0.9 0.392,1.42c0,0.38 -0.068,0.74 -0.204,1.1c-0.132,0.36 -0.364,0.75 -0.696,1.19c-0.328,0.43 -0.783,0.96 -1.367,1.59l-2.287,2.45v0.08h4.733v1.09zM583.215,549.36c-0.059,-0.5 -0.301,-0.89 -0.726,-1.17c-0.424,-0.28 -0.944,-0.42 -1.561,-0.42c-0.45,0 -0.845,0.08 -1.183,0.22c-0.335,0.15 -0.597,0.35 -0.785,0.6c-0.186,0.26 -0.279,0.55 -0.279,0.87c0,0.27 0.065,0.51 0.194,0.7c0.133,0.2 0.302,0.36 0.507,0.49c0.206,0.12 0.421,0.23 0.646,0.31c0.226,0.08 0.433,0.14 0.622,0.19l1.034,0.28c0.265,0.07 0.56,0.17 0.885,0.29c0.328,0.12 0.641,0.29 0.94,0.5c0.301,0.21 0.55,0.48 0.745,0.81c0.196,0.33 0.294,0.73 0.294,1.21c0,0.55 -0.145,1.04 -0.433,1.49c-0.285,0.44 -0.703,0.79 -1.253,1.06c-0.547,0.26 -1.211,0.39 -1.993,0.39c-0.73,0 -1.361,-0.12 -1.895,-0.35c-0.53,-0.24 -0.947,-0.57 -1.252,-0.99c-0.302,-0.42 -0.473,-0.91 -0.512,-1.46h1.272c0.033,0.38 0.163,0.7 0.388,0.95c0.229,0.25 0.517,0.43 0.865,0.56c0.351,0.12 0.729,0.18 1.134,0.18c0.47,0 0.893,-0.08 1.267,-0.23c0.375,-0.16 0.672,-0.37 0.89,-0.65c0.219,-0.28 0.328,-0.6 0.328,-0.97c0,-0.34 -0.094,-0.62 -0.283,-0.83c-0.189,-0.21 -0.437,-0.38 -0.746,-0.52c-0.308,-0.13 -0.641,-0.25 -0.999,-0.34l-1.253,-0.36c-0.795,-0.23 -1.425,-0.56 -1.889,-0.98c-0.464,-0.43 -0.696,-0.98 -0.696,-1.67c0,-0.57 0.154,-1.06 0.462,-1.49c0.312,-0.43 0.729,-0.76 1.253,-0.99c0.527,-0.24 1.115,-0.36 1.765,-0.36c0.656,0 1.24,0.12 1.75,0.35c0.51,0.23 0.915,0.55 1.213,0.96c0.302,0.4 0.461,0.86 0.477,1.37zM589.737,549.36v1h-3.958v-1zM586.933,547.53h1.173v7.28c0,0.33 0.048,0.58 0.144,0.75c0.1,0.16 0.226,0.27 0.378,0.33c0.156,0.05 0.32,0.08 0.492,0.08c0.129,0 0.236,-0.01 0.318,-0.02c0.083,-0.02 0.15,-0.03 0.199,-0.04l0.239,1.05c-0.08,0.03 -0.191,0.06 -0.333,0.09c-0.143,0.03 -0.323,0.05 -0.542,0.05c-0.332,0 -0.656,-0.07 -0.975,-0.21c-0.314,-0.15 -0.576,-0.36 -0.785,-0.66c-0.206,-0.29 -0.308,-0.66 -0.308,-1.1zM593.749,557.18c-0.484,0 -0.923,-0.09 -1.318,-0.27c-0.394,-0.19 -0.707,-0.46 -0.939,-0.8c-0.232,-0.36 -0.348,-0.78 -0.348,-1.28c0,-0.44 0.086,-0.79 0.258,-1.06c0.173,-0.28 0.403,-0.49 0.691,-0.65c0.289,-0.15 0.607,-0.27 0.955,-0.35c0.351,-0.08 0.704,-0.14 1.059,-0.18c0.464,-0.06 0.84,-0.11 1.128,-0.14c0.292,-0.03 0.504,-0.09 0.637,-0.16c0.136,-0.08 0.203,-0.21 0.203,-0.4v-0.04c0,-0.49 -0.134,-0.87 -0.402,-1.14c-0.265,-0.28 -0.668,-0.41 -1.208,-0.41c-0.56,0 -1,0.12 -1.318,0.37c-0.318,0.24 -0.542,0.5 -0.671,0.78l-1.114,-0.4c0.199,-0.46 0.464,-0.82 0.796,-1.08c0.335,-0.26 0.699,-0.44 1.094,-0.55c0.397,-0.1 0.788,-0.16 1.173,-0.16c0.245,0 0.527,0.03 0.845,0.09c0.322,0.06 0.631,0.18 0.93,0.36c0.301,0.18 0.552,0.45 0.75,0.81c0.199,0.36 0.299,0.84 0.299,1.45v5.03h-1.174v-1.03h-0.059c-0.08,0.16 -0.212,0.34 -0.398,0.53c-0.186,0.19 -0.432,0.35 -0.741,0.48c-0.308,0.13 -0.684,0.2 -1.128,0.2zM593.928,556.12c0.464,0 0.855,-0.09 1.173,-0.27c0.322,-0.18 0.563,-0.42 0.726,-0.7c0.166,-0.29 0.248,-0.6 0.248,-0.91v-1.08c-0.049,0.06 -0.159,0.12 -0.328,0.17c-0.165,0.04 -0.358,0.08 -0.576,0.12c-0.216,0.03 -0.426,0.06 -0.632,0.09c-0.202,0.02 -0.366,0.04 -0.492,0.06c-0.305,0.04 -0.59,0.1 -0.855,0.19c-0.262,0.09 -0.474,0.22 -0.636,0.4c-0.16,0.17 -0.239,0.4 -0.239,0.7c0,0.41 0.151,0.72 0.452,0.93c0.305,0.2 0.691,0.3 1.159,0.3zM599.39,557v-7.64h1.134v1.16h0.079c0.14,-0.38 0.391,-0.69 0.756,-0.92c0.365,-0.24 0.776,-0.36 1.233,-0.36c0.086,0 0.194,0.01 0.323,0.01c0.129,0 0.227,0.01 0.293,0.01v1.2c-0.039,-0.01 -0.13,-0.03 -0.273,-0.05c-0.139,-0.02 -0.287,-0.03 -0.442,-0.03c-0.372,0 -0.703,0.08 -0.995,0.23c-0.288,0.15 -0.517,0.37 -0.686,0.64c-0.166,0.27 -0.248,0.57 -0.248,0.92v4.83z" fill="black"/>
</g>
<g id="Frame 390_2">
<rect id="Rectangle 32_8" x="618" y="547.5" width="8" height="8" fill="#EF232A"/>
<path id="1 Star" d="M636.63,546.82v10.18h-1.23v-8.89h-0.06l-2.48,1.65v-1.25l2.54,-1.69zM649.25,549.36c-0.06,-0.5 -0.31,-0.89 -0.73,-1.17c-0.42,-0.28 -0.94,-0.42 -1.56,-0.42c-0.45,0 -0.85,0.08 -1.18,0.22c-0.34,0.15 -0.6,0.35 -0.79,0.6c-0.18,0.26 -0.28,0.55 -0.28,0.87c0,0.27 0.07,0.51 0.2,0.7c0.13,0.2 0.3,0.36 0.5,0.49c0.21,0.12 0.42,0.23 0.65,0.31c0.23,0.08 0.43,0.14 0.62,0.19l1.04,0.28c0.26,0.07 0.56,0.17 0.88,0.29c0.33,0.12 0.64,0.29 0.94,0.5c0.3,0.21 0.55,0.48 0.75,0.81c0.19,0.33 0.29,0.73 0.29,1.21c0,0.55 -0.15,1.04 -0.43,1.49c-0.29,0.44 -0.71,0.79 -1.26,1.06c-0.54,0.26 -1.21,0.39 -1.99,0.39c-0.73,0 -1.36,-0.12 -1.89,-0.35c-0.53,-0.24 -0.95,-0.57 -1.26,-0.99c-0.3,-0.42 -0.47,-0.91 -0.51,-1.46h1.27c0.04,0.38 0.17,0.7 0.39,0.95c0.23,0.25 0.52,0.43 0.87,0.56c0.35,0.12 0.73,0.18 1.13,0.18c0.47,0 0.89,-0.08 1.27,-0.23c0.37,-0.16 0.67,-0.37 0.89,-0.65c0.22,-0.28 0.33,-0.6 0.33,-0.97c0,-0.34 -0.1,-0.62 -0.29,-0.83c-0.19,-0.21 -0.44,-0.38 -0.74,-0.52c-0.31,-0.13 -0.64,-0.25 -1,-0.34l-1.26,-0.36c-0.79,-0.23 -1.42,-0.56 -1.88,-0.98c-0.47,-0.43 -0.7,-0.98 -0.7,-1.67c0,-0.57 0.15,-1.06 0.46,-1.49c0.31,-0.43 0.73,-0.76 1.25,-0.99c0.53,-0.24 1.12,-0.36 1.77,-0.36c0.66,0 1.24,0.12 1.75,0.35c0.51,0.23 0.91,0.55 1.21,0.96c0.3,0.4 0.46,0.86 0.48,1.37zM655.77,549.36v1h-3.96v-1zM652.96,547.53h1.18v7.28c0,0.33 0.05,0.58 0.14,0.75c0.1,0.16 0.23,0.27 0.38,0.33c0.16,0.05 0.32,0.08 0.49,0.08c0.13,0 0.24,-0.01 0.32,-0.02c0.08,-0.02 0.15,-0.03 0.2,-0.04l0.24,1.05c-0.08,0.03 -0.19,0.06 -0.34,0.09c-0.14,0.03 -0.32,0.05 -0.54,0.05c-0.33,0 -0.65,-0.07 -0.97,-0.21c-0.32,-0.15 -0.58,-0.36 -0.79,-0.66c-0.2,-0.29 -0.31,-0.66 -0.31,-1.1zM659.78,557.18c-0.48,0 -0.92,-0.09 -1.32,-0.27c-0.39,-0.19 -0.71,-0.46 -0.94,-0.8c-0.23,-0.36 -0.35,-0.78 -0.35,-1.28c0,-0.44 0.09,-0.79 0.26,-1.06c0.18,-0.28 0.41,-0.49 0.69,-0.65c0.29,-0.15 0.61,-0.27 0.96,-0.35c0.35,-0.08 0.7,-0.14 1.06,-0.18c0.46,-0.06 0.84,-0.11 1.13,-0.14c0.29,-0.03 0.5,-0.09 0.63,-0.16c0.14,-0.08 0.21,-0.21 0.21,-0.4v-0.04c0,-0.49 -0.14,-0.87 -0.41,-1.14c-0.26,-0.28 -0.66,-0.41 -1.2,-0.41c-0.56,0 -1,0.12 -1.32,0.37c-0.32,0.24 -0.54,0.5 -0.67,0.78l-1.12,-0.4c0.2,-0.46 0.47,-0.82 0.8,-1.08c0.33,-0.26 0.7,-0.44 1.09,-0.55c0.4,-0.1 0.79,-0.16 1.18,-0.16c0.24,0 0.52,0.03 0.84,0.09c0.32,0.06 0.63,0.18 0.93,0.36c0.3,0.18 0.55,0.45 0.75,0.81c0.2,0.36 0.3,0.84 0.3,1.45v5.03h-1.17v-1.03h-0.06c-0.08,0.16 -0.22,0.34 -0.4,0.53c-0.19,0.19 -0.43,0.35 -0.74,0.48c-0.31,0.13 -0.69,0.2 -1.13,0.2zM659.96,556.12c0.46,0 0.85,-0.09 1.17,-0.27c0.32,-0.18 0.57,-0.42 0.73,-0.7c0.16,-0.29 0.25,-0.6 0.25,-0.91v-1.08c-0.05,0.06 -0.16,0.12 -0.33,0.17c-0.17,0.04 -0.36,0.08 -0.58,0.12c-0.21,0.03 -0.42,0.06 -0.63,0.09c-0.2,0.02 -0.37,0.04 -0.49,0.06c-0.31,0.04 -0.59,0.1 -0.86,0.19c-0.26,0.09 -0.47,0.22 -0.63,0.4c-0.16,0.17 -0.24,0.4 -0.24,0.7c0,0.41 0.15,0.72 0.45,0.93c0.31,0.2 0.69,0.3 1.16,0.3zM665.42,557v-7.64h1.14v1.16h0.07c0.14,-0.38 0.4,-0.69 0.76,-0.92c0.36,-0.24 0.78,-0.36 1.23,-0.36c0.09,0 0.2,0.01 0.33,0.01c0.13,0 0.22,0.01 0.29,0.01v1.2c-0.04,-0.01 -0.13,-0.03 -0.27,-0.05c-0.14,-0.02 -0.29,-0.03 -0.45,-0.03c-0.37,0 -0.7,0.08 -0.99,0.23c-0.29,0.15 -0.52,0.37 -0.69,0.64c-0.16,0.27 -0.25,0.57 -0.25,0.92v4.83z" fill="black"/>
</g>
</g>
</g></svg>