<svg viewBox="0 0 222.873 111.3721" x="0" y="0" fill="none" xmlns="http://www.w3.org/2000/svg"><g id="Group 91_2" xmlns="http://www.w3.org/2000/svg">
<path id="Ellipse 55_2" d="M222.8781,111.3716c0,-29.537 -11.74,-57.865 -32.62,-78.751c-20.89,-20.886 -49.22,-32.62 -78.76,-32.62c-29.53,0 -57.86,11.734 -78.75,32.62c-20.88,20.886 -32.62,49.214 -32.62,78.751h17.82c0,-24.811 9.86,-48.606 27.4,-66.151c17.55,-17.544 41.34,-27.4 66.15,-27.4c24.82,0 48.61,9.856 66.16,27.4c17.54,17.545 27.4,41.34 27.4,66.151z" fill="#F6F0F0"/>
<path id="Ellipse 56_2" d="M205.3981,51.6826c-12.92,-20.347 -32.09,-35.955 -54.63,-44.481c-22.54,-8.526 -47.24,-9.509 -70.39,-2.803c-23.15,6.706 -43.49,20.74 -57.99,39.995c-14.49,19.255 -22.35,42.692 -22.39,66.792l17.82,0.029c0.03,-20.244 6.63,-39.931 18.81,-56.105c12.17,-16.174 29.27,-27.963 48.71,-33.596c19.45,-5.633 40.19,-4.806 59.13,2.355c18.93,7.162 35.03,20.273 45.88,37.364z" fill="#0B91D6"/>
</g></svg>