<svg viewBox="0 0 762 442.1852" x="0" y="0" fill="none" xmlns="http://www.w3.org/2000/svg"><g id="Frame 469" xmlns="http://www.w3.org/2000/svg">
<rect x="0.22500000000002274" y="0.22999999999956344" width="761.55" height="441.735" rx="8.49836" fill="white"/>
<rect x="0.22500000000002274" y="0.22999999999956344" width="761.55" height="441.735" rx="8.49836" stroke="#F6F0F0" stroke-width="0.450443"/>
<g id="Frame 142">
<path id="0" d="M28.809,348.69c-0.562,0 -1.041,-0.16 -1.437,-0.46c-0.395,-0.31 -0.698,-0.76 -0.907,-1.34c-0.209,-0.59 -0.313,-1.3 -0.313,-2.13c0,-0.82 0.104,-1.53 0.313,-2.11c0.212,-0.59 0.516,-1.04 0.911,-1.35c0.398,-0.31 0.876,-0.47 1.433,-0.47c0.558,0 1.034,0.16 1.43,0.47c0.398,0.31 0.702,0.76 0.911,1.35c0.211,0.58 0.317,1.29 0.317,2.11c0,0.83 -0.105,1.54 -0.314,2.13c-0.209,0.58 -0.511,1.03 -0.907,1.34c-0.395,0.3 -0.874,0.46 -1.437,0.46zM28.809,347.87c0.558,0 0.991,-0.27 1.299,-0.81c0.309,-0.54 0.463,-1.3 0.463,-2.3c0,-0.66 -0.071,-1.22 -0.213,-1.69c-0.139,-0.46 -0.341,-0.82 -0.604,-1.06c-0.262,-0.25 -0.576,-0.37 -0.945,-0.37c-0.552,0 -0.984,0.27 -1.295,0.82c-0.311,0.54 -0.466,1.31 -0.466,2.3c0,0.66 0.069,1.23 0.209,1.69c0.139,0.46 0.339,0.81 0.601,1.05c0.263,0.25 0.581,0.37 0.951,0.37z" fill="#121927"/>
<path id="Vector 18" d="M54.296,345.08h693.304" stroke="#A0A0AA" stroke-opacity="0.7" stroke-width="0.750739"/>
</g>
<path id="Jan" d="M86.544,358.21h0.926v5.46c0,0.49 -0.09,0.9 -0.269,1.24c-0.179,0.34 -0.432,0.6 -0.758,0.78c-0.326,0.18 -0.71,0.26 -1.153,0.26c-0.418,0 -0.79,-0.07 -1.116,-0.22c-0.326,-0.16 -0.582,-0.38 -0.769,-0.66c-0.186,-0.28 -0.28,-0.62 -0.28,-1.01h0.911c0,0.22 0.054,0.4 0.161,0.57c0.109,0.16 0.258,0.28 0.447,0.37c0.19,0.09 0.405,0.13 0.646,0.13c0.266,0 0.493,-0.05 0.679,-0.16c0.187,-0.12 0.329,-0.28 0.426,-0.5c0.099,-0.22 0.149,-0.48 0.149,-0.8zM90.892,365.98c-0.363,0 -0.693,-0.06 -0.989,-0.2c-0.296,-0.14 -0.531,-0.34 -0.705,-0.6c-0.174,-0.27 -0.261,-0.58 -0.261,-0.96c0,-0.33 0.064,-0.59 0.194,-0.8c0.129,-0.2 0.302,-0.36 0.519,-0.48c0.216,-0.12 0.455,-0.2 0.716,-0.26c0.264,-0.06 0.529,-0.11 0.795,-0.14c0.349,-0.05 0.631,-0.08 0.847,-0.1c0.219,-0.03 0.379,-0.07 0.478,-0.13c0.102,-0.06 0.153,-0.15 0.153,-0.3v-0.03c0,-0.36 -0.101,-0.65 -0.302,-0.85c-0.199,-0.21 -0.502,-0.31 -0.907,-0.31c-0.421,0 -0.75,0.09 -0.989,0.28c-0.239,0.18 -0.407,0.38 -0.504,0.59l-0.836,-0.3c0.149,-0.35 0.348,-0.62 0.597,-0.82c0.251,-0.19 0.525,-0.33 0.821,-0.41c0.299,-0.08 0.592,-0.12 0.881,-0.12c0.184,0 0.396,0.03 0.635,0.07c0.241,0.04 0.474,0.13 0.697,0.26c0.227,0.14 0.415,0.34 0.564,0.61c0.149,0.27 0.224,0.64 0.224,1.09v3.78h-0.881v-0.78h-0.045c-0.059,0.13 -0.159,0.26 -0.298,0.4c-0.14,0.15 -0.325,0.27 -0.556,0.37c-0.232,0.09 -0.514,0.14 -0.848,0.14zM91.027,365.19c0.348,0 0.642,-0.06 0.881,-0.2c0.241,-0.14 0.423,-0.32 0.545,-0.53c0.124,-0.22 0.186,-0.45 0.186,-0.68v-0.81c-0.037,0.04 -0.119,0.08 -0.246,0.12c-0.125,0.04 -0.269,0.07 -0.433,0.1c-0.162,0.02 -0.32,0.04 -0.474,0.06c-0.152,0.02 -0.275,0.03 -0.37,0.05c-0.229,0.03 -0.443,0.08 -0.642,0.14c-0.196,0.07 -0.355,0.17 -0.477,0.3c-0.12,0.13 -0.179,0.3 -0.179,0.53c0,0.3 0.113,0.54 0.339,0.69c0.229,0.16 0.519,0.23 0.87,0.23zM96.009,362.4v3.45h-0.881v-5.73h0.851v0.89h0.074c0.135,-0.29 0.339,-0.52 0.612,-0.7c0.274,-0.18 0.628,-0.27 1.06,-0.27c0.389,0 0.728,0.08 1.019,0.24c0.292,0.16 0.518,0.4 0.68,0.72c0.161,0.32 0.242,0.72 0.242,1.21v3.64h-0.881v-3.58c0,-0.45 -0.116,-0.8 -0.35,-1.06c-0.234,-0.25 -0.555,-0.38 -0.963,-0.38c-0.282,0 -0.533,0.07 -0.754,0.19c-0.219,0.12 -0.392,0.3 -0.519,0.53c-0.127,0.23 -0.19,0.52 -0.19,0.85z" fill="#121927"/>
<path id="Feb" d="M196.421,365.85v-7.64h4.584v0.82h-3.658v2.58h3.314v0.82h-3.314v3.42zM204.454,365.97c-0.553,0 -1.029,-0.12 -1.43,-0.37c-0.398,-0.24 -0.705,-0.59 -0.922,-1.03c-0.214,-0.44 -0.321,-0.95 -0.321,-1.54c0,-0.59 0.107,-1.11 0.321,-1.55c0.217,-0.45 0.518,-0.81 0.903,-1.06c0.389,-0.25 0.841,-0.38 1.359,-0.38c0.299,0 0.593,0.05 0.885,0.15c0.291,0.1 0.556,0.26 0.794,0.49c0.239,0.22 0.43,0.51 0.572,0.88c0.141,0.36 0.212,0.81 0.212,1.35v0.37h-4.419v-0.76h3.524c0,-0.32 -0.065,-0.61 -0.195,-0.86c-0.126,-0.26 -0.308,-0.46 -0.544,-0.61c-0.234,-0.14 -0.511,-0.22 -0.829,-0.22c-0.351,0 -0.654,0.09 -0.911,0.27c-0.254,0.17 -0.449,0.39 -0.586,0.67c-0.137,0.27 -0.205,0.57 -0.205,0.89v0.5c0,0.44 0.075,0.8 0.224,1.1c0.152,0.3 0.362,0.53 0.631,0.69c0.268,0.15 0.581,0.23 0.937,0.23c0.231,0 0.44,-0.03 0.627,-0.1c0.189,-0.07 0.352,-0.17 0.488,-0.3c0.137,-0.13 0.243,-0.3 0.318,-0.5l0.851,0.24c-0.09,0.29 -0.24,0.54 -0.452,0.76c-0.211,0.22 -0.473,0.39 -0.784,0.51c-0.311,0.12 -0.66,0.18 -1.048,0.18zM208.287,365.85v-7.64h0.88v2.82h0.075c0.065,-0.1 0.154,-0.23 0.269,-0.38c0.117,-0.16 0.284,-0.3 0.5,-0.42c0.219,-0.13 0.515,-0.19 0.888,-0.19c0.483,0 0.909,0.12 1.277,0.36c0.368,0.25 0.655,0.59 0.862,1.03c0.206,0.44 0.31,0.97 0.31,1.57c0,0.61 -0.104,1.13 -0.31,1.58c-0.207,0.44 -0.493,0.78 -0.858,1.03c-0.366,0.24 -0.788,0.36 -1.266,0.36c-0.368,0 -0.663,-0.06 -0.884,-0.18c-0.222,-0.13 -0.392,-0.27 -0.512,-0.42c-0.119,-0.16 -0.211,-0.3 -0.276,-0.4h-0.104v0.88zM209.153,362.98c0,0.44 0.063,0.82 0.19,1.15c0.127,0.33 0.312,0.59 0.556,0.77c0.244,0.19 0.542,0.28 0.896,0.28c0.368,0 0.675,-0.1 0.922,-0.29c0.249,-0.2 0.435,-0.46 0.56,-0.79c0.126,-0.34 0.19,-0.71 0.19,-1.12c0,-0.4 -0.062,-0.76 -0.187,-1.09c-0.122,-0.32 -0.307,-0.58 -0.556,-0.77c-0.246,-0.19 -0.556,-0.29 -0.929,-0.29c-0.359,0 -0.66,0.09 -0.903,0.28c-0.244,0.18 -0.428,0.43 -0.553,0.75c-0.124,0.32 -0.186,0.7 -0.186,1.12z" fill="#121927"/>
<path id="March" d="M318.944,358.21h1.105l2.597,6.34h0.09l2.598,-6.34h1.104v7.64h-0.866v-5.81h-0.074l-2.389,5.81h-0.836l-2.389,-5.81h-0.074v5.81h-0.866zM329.862,365.98c-0.363,0 -0.693,-0.06 -0.989,-0.2c-0.296,-0.14 -0.531,-0.34 -0.706,-0.6c-0.174,-0.27 -0.261,-0.58 -0.261,-0.96c0,-0.33 0.065,-0.59 0.194,-0.8c0.13,-0.2 0.303,-0.36 0.519,-0.48c0.216,-0.12 0.455,-0.2 0.717,-0.26c0.263,-0.06 0.528,-0.11 0.795,-0.14c0.348,-0.05 0.63,-0.08 0.847,-0.1c0.219,-0.03 0.378,-0.07 0.478,-0.13c0.102,-0.06 0.153,-0.15 0.153,-0.3v-0.03c0,-0.36 -0.101,-0.65 -0.303,-0.85c-0.199,-0.21 -0.501,-0.31 -0.907,-0.31c-0.42,0 -0.75,0.09 -0.989,0.28c-0.239,0.18 -0.407,0.38 -0.504,0.59l-0.836,-0.3c0.15,-0.35 0.349,-0.62 0.598,-0.82c0.251,-0.19 0.525,-0.33 0.821,-0.41c0.298,-0.08 0.592,-0.12 0.88,-0.12c0.185,0 0.396,0.03 0.635,0.07c0.241,0.04 0.474,0.13 0.698,0.26c0.226,0.14 0.414,0.34 0.564,0.61c0.149,0.27 0.223,0.64 0.223,1.09v3.78h-0.88v-0.78h-0.045c-0.06,0.13 -0.159,0.26 -0.299,0.4c-0.139,0.15 -0.324,0.27 -0.556,0.37c-0.231,0.09 -0.514,0.14 -0.847,0.14zM329.996,365.19c0.349,0 0.642,-0.06 0.881,-0.2c0.241,-0.14 0.423,-0.32 0.545,-0.53c0.124,-0.22 0.187,-0.45 0.187,-0.68v-0.81c-0.038,0.04 -0.12,0.08 -0.247,0.12c-0.124,0.04 -0.268,0.07 -0.433,0.1c-0.161,0.02 -0.319,0.04 -0.474,0.06c-0.151,0.02 -0.275,0.03 -0.369,0.05c-0.229,0.03 -0.443,0.08 -0.642,0.14c-0.197,0.07 -0.356,0.17 -0.478,0.3c-0.119,0.13 -0.179,0.3 -0.179,0.53c0,0.3 0.113,0.54 0.34,0.69c0.229,0.16 0.518,0.23 0.869,0.23zM334.097,365.85v-5.73h0.851v0.86h0.06c0.104,-0.28 0.293,-0.51 0.567,-0.69c0.274,-0.17 0.582,-0.26 0.926,-0.26c0.065,0 0.145,0 0.242,0c0.097,0 0.171,0.01 0.221,0.01v0.9c-0.03,-0.01 -0.099,-0.02 -0.206,-0.04c-0.104,-0.01 -0.215,-0.02 -0.332,-0.02c-0.279,0 -0.527,0.06 -0.746,0.17c-0.217,0.12 -0.388,0.28 -0.515,0.48c-0.125,0.2 -0.187,0.43 -0.187,0.69v3.63zM340.162,365.97c-0.537,0 -1,-0.13 -1.388,-0.38c-0.388,-0.25 -0.687,-0.6 -0.896,-1.05c-0.209,-0.45 -0.313,-0.95 -0.313,-1.53c0,-0.58 0.107,-1.09 0.321,-1.54c0.216,-0.45 0.517,-0.8 0.903,-1.05c0.388,-0.25 0.841,-0.38 1.358,-0.38c0.403,0 0.767,0.08 1.09,0.23c0.324,0.15 0.589,0.36 0.795,0.62c0.207,0.27 0.335,0.59 0.385,0.94h-0.881c-0.067,-0.26 -0.217,-0.49 -0.448,-0.69c-0.229,-0.2 -0.538,-0.31 -0.926,-0.31c-0.343,0 -0.644,0.09 -0.903,0.27c-0.256,0.18 -0.457,0.43 -0.601,0.75c-0.142,0.32 -0.213,0.7 -0.213,1.13c0,0.45 0.07,0.83 0.209,1.16c0.142,0.33 0.341,0.58 0.598,0.77c0.258,0.18 0.562,0.27 0.91,0.27c0.229,0 0.437,-0.04 0.624,-0.12c0.186,-0.08 0.344,-0.2 0.474,-0.34c0.129,-0.15 0.221,-0.33 0.276,-0.54h0.881c-0.05,0.34 -0.173,0.64 -0.37,0.91c-0.194,0.27 -0.451,0.49 -0.772,0.64c-0.319,0.16 -0.69,0.24 -1.113,0.24zM344.585,362.4v3.45h-0.881v-7.64h0.881v2.8h0.075c0.134,-0.29 0.336,-0.53 0.604,-0.7c0.272,-0.18 0.632,-0.27 1.083,-0.27c0.39,0 0.733,0.08 1.026,0.24c0.294,0.15 0.521,0.39 0.683,0.71c0.164,0.32 0.247,0.72 0.247,1.22v3.64h-0.881v-3.58c0,-0.46 -0.118,-0.81 -0.355,-1.06c-0.234,-0.25 -0.558,-0.38 -0.974,-0.38c-0.289,0 -0.547,0.07 -0.776,0.19c-0.227,0.12 -0.406,0.3 -0.538,0.53c-0.129,0.23 -0.194,0.52 -0.194,0.85z" fill="#121927"/>
<path id="April" d="M451.979,365.85h-0.97l2.807,-7.64h0.955l2.807,7.64h-0.971l-2.284,-6.43h-0.059zM452.338,362.86h3.911v0.83h-3.911zM458.649,368v-7.88h0.851v0.91h0.105c0.064,-0.1 0.154,-0.23 0.268,-0.38c0.117,-0.16 0.284,-0.3 0.5,-0.42c0.219,-0.13 0.515,-0.19 0.889,-0.19c0.482,0 0.908,0.12 1.276,0.36c0.368,0.25 0.656,0.59 0.862,1.03c0.207,0.44 0.31,0.97 0.31,1.57c0,0.61 -0.103,1.13 -0.31,1.58c-0.206,0.44 -0.492,0.78 -0.858,1.03c-0.366,0.24 -0.788,0.36 -1.265,0.36c-0.369,0 -0.663,-0.06 -0.885,-0.18c-0.221,-0.13 -0.392,-0.27 -0.511,-0.42c-0.12,-0.16 -0.212,-0.3 -0.276,-0.4h-0.075v3.03zM459.515,362.98c0,0.44 0.063,0.82 0.19,1.15c0.127,0.33 0.313,0.59 0.556,0.77c0.244,0.19 0.543,0.28 0.896,0.28c0.368,0 0.676,-0.1 0.922,-0.29c0.249,-0.2 0.436,-0.46 0.56,-0.79c0.127,-0.34 0.19,-0.71 0.19,-1.12c0,-0.4 -0.062,-0.76 -0.186,-1.09c-0.122,-0.32 -0.308,-0.58 -0.556,-0.77c-0.247,-0.19 -0.557,-0.29 -0.93,-0.29c-0.358,0 -0.659,0.09 -0.903,0.28c-0.244,0.18 -0.428,0.43 -0.552,0.75c-0.125,0.32 -0.187,0.7 -0.187,1.12zM465.054,365.85v-5.73h0.851v0.86h0.06c0.104,-0.28 0.293,-0.51 0.567,-0.69c0.274,-0.17 0.582,-0.26 0.925,-0.26c0.065,0 0.146,0 0.243,0c0.097,0 0.171,0.01 0.22,0.01v0.9c-0.03,-0.01 -0.098,-0.02 -0.205,-0.04c-0.105,-0.01 -0.215,-0.02 -0.332,-0.02c-0.279,0 -0.528,0.06 -0.747,0.17c-0.216,0.12 -0.388,0.28 -0.515,0.48c-0.124,0.2 -0.186,0.43 -0.186,0.69v3.63zM468.964,365.85v-5.73h0.881v5.73zM469.412,359.16c-0.171,0 -0.319,-0.06 -0.444,-0.17c-0.122,-0.12 -0.183,-0.26 -0.183,-0.43c0,-0.16 0.061,-0.3 0.183,-0.42c0.125,-0.11 0.273,-0.17 0.444,-0.17c0.172,0 0.319,0.06 0.441,0.17c0.124,0.12 0.186,0.26 0.186,0.42c0,0.17 -0.062,0.31 -0.186,0.43c-0.122,0.11 -0.269,0.17 -0.441,0.17zM472.339,358.21v7.64h-0.88v-7.64z" fill="#121927"/>
<path id="May" d="M580.537,358.21h1.105l2.597,6.34h0.09l2.598,-6.34h1.105v7.64h-0.866v-5.81h-0.075l-2.389,5.81h-0.836l-2.389,-5.81h-0.074v5.81h-0.866zM591.455,365.98c-0.363,0 -0.693,-0.06 -0.989,-0.2c-0.296,-0.14 -0.531,-0.34 -0.705,-0.6c-0.175,-0.27 -0.262,-0.58 -0.262,-0.96c0,-0.33 0.065,-0.59 0.194,-0.8c0.13,-0.2 0.303,-0.36 0.519,-0.48c0.217,-0.12 0.455,-0.2 0.717,-0.26c0.264,-0.06 0.529,-0.11 0.795,-0.14c0.348,-0.05 0.631,-0.08 0.847,-0.1c0.219,-0.03 0.378,-0.07 0.478,-0.13c0.102,-0.06 0.153,-0.15 0.153,-0.3v-0.03c0,-0.36 -0.101,-0.65 -0.303,-0.85c-0.199,-0.21 -0.501,-0.31 -0.907,-0.31c-0.42,0 -0.75,0.09 -0.989,0.28c-0.238,0.18 -0.406,0.38 -0.503,0.59l-0.837,-0.3c0.15,-0.35 0.349,-0.62 0.598,-0.82c0.251,-0.19 0.525,-0.33 0.821,-0.41c0.298,-0.08 0.592,-0.12 0.881,-0.12c0.184,0 0.395,0.03 0.634,0.07c0.241,0.04 0.474,0.13 0.698,0.26c0.227,0.14 0.414,0.34 0.564,0.61c0.149,0.27 0.224,0.64 0.224,1.09v3.78h-0.881v-0.78h-0.045c-0.06,0.13 -0.159,0.26 -0.299,0.4c-0.139,0.15 -0.324,0.27 -0.556,0.37c-0.231,0.09 -0.514,0.14 -0.847,0.14zM591.589,365.19c0.349,0 0.642,-0.06 0.881,-0.2c0.242,-0.14 0.423,-0.32 0.545,-0.53c0.125,-0.22 0.187,-0.45 0.187,-0.68v-0.81c-0.038,0.04 -0.12,0.08 -0.247,0.12c-0.124,0.04 -0.268,0.07 -0.433,0.1c-0.161,0.02 -0.319,0.04 -0.474,0.06c-0.151,0.02 -0.274,0.03 -0.369,0.05c-0.229,0.03 -0.443,0.08 -0.642,0.14c-0.197,0.07 -0.356,0.17 -0.478,0.3c-0.119,0.13 -0.179,0.3 -0.179,0.53c0,0.3 0.113,0.54 0.34,0.69c0.229,0.16 0.519,0.23 0.869,0.23zM596.052,368c-0.149,0 -0.282,-0.01 -0.399,-0.04c-0.117,-0.02 -0.198,-0.04 -0.243,-0.06l0.224,-0.78c0.214,0.05 0.403,0.07 0.568,0.06c0.164,-0.02 0.309,-0.09 0.436,-0.22c0.13,-0.13 0.248,-0.34 0.355,-0.63l0.164,-0.45l-2.12,-5.76h0.956l1.582,4.57h0.06l1.582,-4.57h0.956l-2.434,6.57c-0.109,0.29 -0.245,0.54 -0.406,0.73c-0.162,0.2 -0.35,0.34 -0.564,0.44c-0.212,0.09 -0.45,0.14 -0.717,0.14z" fill="#121927"/>
<path id="June" d="M710.64,358.21h0.93v5.46c0,0.49 -0.09,0.9 -0.27,1.24c-0.18,0.34 -0.43,0.6 -0.76,0.78c-0.32,0.18 -0.71,0.26 -1.15,0.26c-0.42,0 -0.79,-0.07 -1.12,-0.22c-0.32,-0.16 -0.58,-0.38 -0.76,-0.66c-0.19,-0.28 -0.28,-0.62 -0.28,-1.01h0.91c0,0.22 0.05,0.4 0.16,0.57c0.11,0.16 0.26,0.28 0.44,0.37c0.19,0.09 0.41,0.13 0.65,0.13c0.27,0 0.49,-0.05 0.68,-0.16c0.19,-0.12 0.33,-0.28 0.43,-0.5c0.09,-0.22 0.14,-0.48 0.14,-0.8zM716.92,363.51v-3.39h0.88v5.73h-0.88v-0.97h-0.06c-0.14,0.29 -0.34,0.54 -0.63,0.74c-0.28,0.2 -0.64,0.3 -1.07,0.3c-0.36,0 -0.68,-0.07 -0.96,-0.23c-0.28,-0.16 -0.5,-0.4 -0.66,-0.72c-0.15,-0.32 -0.23,-0.72 -0.23,-1.21v-3.64h0.88v3.58c0,0.42 0.11,0.75 0.35,1c0.23,0.25 0.54,0.37 0.9,0.37c0.22,0 0.44,-0.05 0.67,-0.16c0.23,-0.12 0.42,-0.29 0.57,-0.52c0.16,-0.23 0.24,-0.53 0.24,-0.88zM720.29,362.4v3.45h-0.88v-5.73h0.85v0.89h0.08c0.13,-0.29 0.34,-0.52 0.61,-0.7c0.27,-0.18 0.63,-0.27 1.06,-0.27c0.39,0 0.73,0.08 1.02,0.24c0.29,0.16 0.52,0.4 0.68,0.72c0.16,0.32 0.24,0.72 0.24,1.21v3.64h-0.88v-3.58c0,-0.45 -0.12,-0.8 -0.35,-1.06c-0.23,-0.25 -0.56,-0.38 -0.96,-0.38c-0.28,0 -0.54,0.07 -0.76,0.19c-0.22,0.12 -0.39,0.3 -0.52,0.53c-0.12,0.23 -0.19,0.52 -0.19,0.85zM727.96,365.97c-0.55,0 -1.02,-0.12 -1.42,-0.37c-0.4,-0.24 -0.71,-0.59 -0.93,-1.03c-0.21,-0.44 -0.32,-0.95 -0.32,-1.54c0,-0.59 0.11,-1.11 0.32,-1.55c0.22,-0.45 0.52,-0.81 0.91,-1.06c0.38,-0.25 0.84,-0.38 1.36,-0.38c0.29,0 0.59,0.05 0.88,0.15c0.29,0.1 0.56,0.26 0.79,0.49c0.24,0.22 0.43,0.51 0.58,0.88c0.14,0.36 0.21,0.81 0.21,1.35v0.37h-4.42v-0.76h3.52c0,-0.32 -0.06,-0.61 -0.19,-0.86c-0.13,-0.26 -0.31,-0.46 -0.55,-0.61c-0.23,-0.14 -0.51,-0.22 -0.82,-0.22c-0.36,0 -0.66,0.09 -0.92,0.27c-0.25,0.17 -0.44,0.39 -0.58,0.67c-0.14,0.27 -0.21,0.57 -0.21,0.89v0.5c0,0.44 0.08,0.8 0.23,1.1c0.15,0.3 0.36,0.53 0.63,0.69c0.27,0.15 0.58,0.23 0.93,0.23c0.24,0 0.45,-0.03 0.63,-0.1c0.19,-0.07 0.35,-0.17 0.49,-0.3c0.14,-0.13 0.24,-0.3 0.32,-0.5l0.85,0.24c-0.09,0.29 -0.24,0.54 -0.45,0.76c-0.21,0.22 -0.48,0.39 -0.79,0.51c-0.31,0.12 -0.66,0.18 -1.05,0.18z" fill="#121927"/>
<g id="Frame 140">
<path id="20" d="M26.384,288.52v-0.67l2.523,-2.76c0.296,-0.32 0.54,-0.6 0.731,-0.84c0.192,-0.24 0.334,-0.47 0.426,-0.68c0.094,-0.22 0.141,-0.44 0.141,-0.67c0,-0.27 -0.064,-0.51 -0.194,-0.7c-0.127,-0.2 -0.301,-0.35 -0.522,-0.46c-0.222,-0.1 -0.47,-0.16 -0.747,-0.16c-0.293,0 -0.55,0.06 -0.768,0.18c-0.217,0.12 -0.385,0.29 -0.504,0.51c-0.117,0.22 -0.176,0.47 -0.176,0.76h-0.881c0,-0.45 0.104,-0.84 0.31,-1.18c0.207,-0.34 0.488,-0.6 0.844,-0.79c0.358,-0.19 0.76,-0.28 1.205,-0.28c0.448,0 0.845,0.09 1.191,0.28c0.346,0.19 0.617,0.44 0.814,0.76c0.196,0.33 0.294,0.68 0.294,1.08c0,0.28 -0.051,0.55 -0.153,0.82c-0.099,0.27 -0.273,0.56 -0.522,0.89c-0.247,0.33 -0.589,0.73 -1.027,1.2l-1.716,1.83v0.06h3.553v0.82zM35.24,288.63c-0.562,0 -1.041,-0.15 -1.437,-0.46c-0.395,-0.31 -0.697,-0.76 -0.907,-1.34c-0.209,-0.59 -0.313,-1.3 -0.313,-2.13c0,-0.82 0.104,-1.53 0.313,-2.11c0.212,-0.59 0.516,-1.04 0.911,-1.35c0.398,-0.31 0.876,-0.46 1.433,-0.46c0.558,0 1.034,0.15 1.43,0.46c0.398,0.31 0.702,0.76 0.911,1.35c0.211,0.58 0.317,1.29 0.317,2.11c0,0.83 -0.105,1.54 -0.314,2.13c-0.209,0.58 -0.511,1.03 -0.907,1.34c-0.395,0.31 -0.874,0.46 -1.437,0.46zM35.24,287.81c0.558,0 0.991,-0.27 1.299,-0.81c0.309,-0.54 0.463,-1.3 0.463,-2.3c0,-0.66 -0.071,-1.22 -0.213,-1.69c-0.139,-0.46 -0.341,-0.82 -0.604,-1.06c-0.262,-0.25 -0.576,-0.37 -0.945,-0.37c-0.552,0 -0.984,0.27 -1.295,0.82c-0.311,0.54 -0.466,1.31 -0.466,2.3c0,0.66 0.069,1.23 0.209,1.69c0.139,0.46 0.339,0.81 0.601,1.06c0.263,0.24 0.581,0.36 0.951,0.36z" fill="#121927"/>
<path id="Vector 16" d="M56.542,285.02h693.308" stroke="#A0A0AA" stroke-opacity="0.7" stroke-width="0.600591" stroke-dasharray="6.76 6.76"/>
</g>
<g id="Frame 393">
<path id="40" d="M26.825,226.9v-0.76l3.359,-5.32h0.552v1.18h-0.373l-2.538,4.02v0.06h4.523v0.82zM30.423,228.47v-1.8v-0.36v-5.49h0.88v7.65zM36.24,228.57c-0.562,0 -1.041,-0.15 -1.437,-0.46c-0.395,-0.31 -0.697,-0.75 -0.907,-1.34c-0.209,-0.59 -0.313,-1.3 -0.313,-2.13c0,-0.82 0.104,-1.53 0.313,-2.11c0.212,-0.59 0.516,-1.04 0.911,-1.35c0.398,-0.31 0.876,-0.46 1.433,-0.46c0.558,0 1.034,0.15 1.43,0.46c0.398,0.31 0.702,0.76 0.911,1.35c0.211,0.58 0.317,1.29 0.317,2.11c0,0.83 -0.105,1.54 -0.314,2.13c-0.209,0.59 -0.511,1.03 -0.907,1.34c-0.395,0.31 -0.874,0.46 -1.437,0.46zM36.24,227.75c0.558,0 0.991,-0.27 1.299,-0.81c0.309,-0.54 0.463,-1.3 0.463,-2.3c0,-0.66 -0.071,-1.22 -0.213,-1.69c-0.139,-0.46 -0.341,-0.82 -0.604,-1.06c-0.262,-0.25 -0.576,-0.37 -0.945,-0.37c-0.552,0 -0.984,0.28 -1.295,0.82c-0.311,0.54 -0.466,1.31 -0.466,2.3c0,0.67 0.069,1.23 0.209,1.69c0.139,0.46 0.339,0.82 0.601,1.06c0.263,0.24 0.581,0.36 0.951,0.36z" fill="#121927"/>
<path id="Vector 16_2" d="M57.542,224.97h693.308" stroke="#A0A0AA" stroke-opacity="0.7" stroke-width="0.600591" stroke-dasharray="6.76 6.76"/>
</g>
<g id="Frame 394">
<path id="60" d="M29.727,168.51c-0.314,0 -0.628,-0.06 -0.941,-0.18c-0.314,-0.11 -0.6,-0.31 -0.858,-0.58c-0.259,-0.27 -0.467,-0.64 -0.624,-1.11c-0.157,-0.46 -0.235,-1.05 -0.235,-1.76c0,-0.67 0.064,-1.27 0.19,-1.8c0.127,-0.52 0.311,-0.96 0.553,-1.32c0.241,-0.36 0.532,-0.64 0.873,-0.82c0.344,-0.19 0.73,-0.28 1.161,-0.28c0.428,0 0.809,0.08 1.142,0.26c0.336,0.16 0.61,0.4 0.821,0.7c0.212,0.31 0.349,0.66 0.411,1.05h-0.911c-0.085,-0.34 -0.249,-0.63 -0.493,-0.85c-0.243,-0.23 -0.567,-0.34 -0.97,-0.34c-0.592,0 -1.059,0.26 -1.4,0.77c-0.338,0.52 -0.509,1.24 -0.511,2.17h0.06c0.139,-0.21 0.304,-0.39 0.496,-0.54c0.194,-0.15 0.408,-0.27 0.642,-0.35c0.234,-0.08 0.482,-0.13 0.743,-0.13c0.438,0 0.838,0.11 1.202,0.33c0.363,0.22 0.654,0.52 0.873,0.9c0.219,0.38 0.328,0.82 0.328,1.31c0,0.48 -0.105,0.91 -0.317,1.3c-0.211,0.39 -0.509,0.7 -0.892,0.93c-0.381,0.23 -0.828,0.35 -1.343,0.34zM29.727,167.69c0.313,0 0.594,-0.08 0.843,-0.24c0.251,-0.15 0.449,-0.36 0.593,-0.63c0.147,-0.26 0.221,-0.55 0.221,-0.88c0,-0.31 -0.071,-0.6 -0.213,-0.86c-0.139,-0.26 -0.332,-0.47 -0.579,-0.62c-0.243,-0.16 -0.522,-0.23 -0.836,-0.23c-0.236,0 -0.456,0.04 -0.66,0.14c-0.204,0.09 -0.383,0.22 -0.538,0.38c-0.152,0.16 -0.271,0.35 -0.358,0.55c-0.087,0.21 -0.131,0.43 -0.131,0.66c0,0.3 0.071,0.58 0.213,0.85c0.144,0.26 0.341,0.48 0.59,0.64c0.251,0.16 0.536,0.24 0.855,0.24zM36.24,168.51c-0.562,0 -1.041,-0.15 -1.437,-0.46c-0.395,-0.31 -0.697,-0.75 -0.907,-1.34c-0.209,-0.59 -0.313,-1.29 -0.313,-2.13c0,-0.82 0.104,-1.53 0.313,-2.11c0.212,-0.59 0.516,-1.04 0.911,-1.35c0.398,-0.31 0.876,-0.46 1.433,-0.46c0.558,0 1.034,0.15 1.43,0.46c0.398,0.31 0.702,0.76 0.911,1.35c0.211,0.58 0.317,1.29 0.317,2.11c0,0.84 -0.105,1.54 -0.314,2.13c-0.209,0.59 -0.511,1.03 -0.907,1.34c-0.395,0.31 -0.874,0.46 -1.437,0.46zM36.24,167.69c0.558,0 0.991,-0.27 1.299,-0.81c0.309,-0.53 0.463,-1.3 0.463,-2.3c0,-0.66 -0.071,-1.22 -0.213,-1.69c-0.139,-0.46 -0.341,-0.82 -0.604,-1.06c-0.262,-0.24 -0.576,-0.37 -0.945,-0.37c-0.552,0 -0.984,0.28 -1.295,0.82c-0.311,0.54 -0.466,1.31 -0.466,2.3c0,0.67 0.069,1.23 0.209,1.69c0.139,0.46 0.339,0.82 0.601,1.06c0.263,0.24 0.581,0.36 0.951,0.36z" fill="#121927"/>
<path id="Vector 16_3" d="M57.542,164.91h693.308" stroke="#A0A0AA" stroke-opacity="0.7" stroke-width="0.600591" stroke-dasharray="6.76 6.76"/>
</g>
<g id="Frame 395">
<path id="80" d="M29.719,108.45c-0.513,0 -0.965,-0.09 -1.359,-0.27c-0.39,-0.19 -0.695,-0.44 -0.914,-0.76c-0.219,-0.32 -0.327,-0.69 -0.325,-1.1c-0.002,-0.33 0.061,-0.63 0.191,-0.9c0.129,-0.28 0.306,-0.51 0.53,-0.69c0.226,-0.19 0.479,-0.3 0.757,-0.35v-0.05c-0.365,-0.09 -0.657,-0.3 -0.873,-0.61c-0.217,-0.32 -0.324,-0.69 -0.321,-1.09c-0.003,-0.39 0.096,-0.74 0.295,-1.04c0.199,-0.31 0.473,-0.55 0.821,-0.73c0.351,-0.17 0.75,-0.26 1.198,-0.26c0.443,0 0.839,0.09 1.187,0.26c0.348,0.18 0.622,0.42 0.821,0.73c0.202,0.3 0.304,0.65 0.306,1.04c-0.002,0.4 -0.113,0.77 -0.332,1.09c-0.217,0.31 -0.504,0.52 -0.862,0.61v0.05c0.276,0.05 0.525,0.16 0.746,0.35c0.222,0.18 0.398,0.41 0.53,0.69c0.132,0.27 0.199,0.57 0.202,0.9c-0.003,0.41 -0.115,0.78 -0.336,1.1c-0.219,0.32 -0.524,0.57 -0.915,0.76c-0.388,0.18 -0.837,0.27 -1.347,0.27zM29.719,107.63c0.346,0 0.644,-0.06 0.896,-0.17c0.251,-0.11 0.445,-0.27 0.582,-0.47c0.137,-0.21 0.207,-0.44 0.209,-0.72c-0.002,-0.29 -0.077,-0.54 -0.224,-0.76c-0.147,-0.22 -0.347,-0.4 -0.601,-0.53c-0.251,-0.12 -0.538,-0.19 -0.862,-0.19c-0.326,0 -0.617,0.07 -0.873,0.19c-0.254,0.13 -0.454,0.31 -0.601,0.53c-0.145,0.22 -0.215,0.47 -0.213,0.76c-0.002,0.28 0.063,0.51 0.198,0.72c0.137,0.2 0.332,0.36 0.586,0.47c0.254,0.11 0.555,0.17 0.903,0.17zM29.719,104c0.274,0 0.516,-0.05 0.728,-0.16c0.214,-0.11 0.382,-0.26 0.504,-0.46c0.122,-0.2 0.184,-0.43 0.186,-0.69c-0.002,-0.26 -0.063,-0.49 -0.183,-0.68c-0.119,-0.19 -0.284,-0.34 -0.496,-0.44c-0.211,-0.11 -0.458,-0.17 -0.739,-0.17c-0.286,0 -0.536,0.06 -0.75,0.17c-0.214,0.1 -0.38,0.25 -0.497,0.44c-0.117,0.19 -0.174,0.42 -0.171,0.68c-0.003,0.26 0.056,0.49 0.175,0.69c0.122,0.2 0.29,0.35 0.504,0.46c0.214,0.11 0.46,0.16 0.739,0.16zM36.24,108.45c-0.562,0 -1.041,-0.15 -1.437,-0.46c-0.395,-0.31 -0.697,-0.75 -0.907,-1.34c-0.209,-0.58 -0.313,-1.29 -0.313,-2.13c0,-0.82 0.104,-1.53 0.313,-2.11c0.212,-0.59 0.516,-1.04 0.911,-1.34c0.398,-0.32 0.876,-0.47 1.433,-0.47c0.558,0 1.034,0.15 1.43,0.47c0.398,0.3 0.702,0.75 0.911,1.34c0.211,0.58 0.317,1.29 0.317,2.11c0,0.84 -0.105,1.55 -0.314,2.13c-0.209,0.59 -0.511,1.03 -0.907,1.34c-0.395,0.31 -0.874,0.46 -1.437,0.46zM36.24,107.63c0.558,0 0.991,-0.27 1.299,-0.81c0.309,-0.53 0.463,-1.3 0.463,-2.3c0,-0.66 -0.071,-1.22 -0.213,-1.69c-0.139,-0.46 -0.341,-0.82 -0.604,-1.06c-0.262,-0.24 -0.576,-0.37 -0.945,-0.37c-0.552,0 -0.984,0.28 -1.295,0.82c-0.311,0.54 -0.466,1.31 -0.466,2.3c0,0.67 0.069,1.23 0.209,1.69c0.139,0.46 0.339,0.82 0.601,1.06c0.263,0.24 0.581,0.36 0.951,0.36z" fill="#121927"/>
<path id="Vector 16_4" d="M57.542,104.85h693.308" stroke="#A0A0AA" stroke-opacity="0.7" stroke-width="0.600591" stroke-dasharray="6.76 6.76"/>
</g>
<g id="Group 89">
<path id="Vector 14" d="M58.182,44.29h693.308" stroke="#A0A0AA" stroke-opacity="0.7" stroke-width="0.600591" stroke-dasharray="6.76 6.76"/>
<path id="100" d="M29.98,40.64v7.65h-0.926v-6.68h-0.045l-1.866,1.24v-0.94l1.911,-1.27zM34.671,48.39c-0.562,0 -1.041,-0.15 -1.437,-0.46c-0.395,-0.31 -0.697,-0.75 -0.906,-1.34c-0.209,-0.58 -0.314,-1.29 -0.314,-2.12c0,-0.83 0.105,-1.54 0.314,-2.12c0.211,-0.59 0.515,-1.04 0.91,-1.34c0.398,-0.32 0.876,-0.47 1.433,-0.47c0.558,0 1.034,0.15 1.43,0.47c0.398,0.3 0.702,0.75 0.911,1.34c0.211,0.58 0.317,1.29 0.317,2.12c0,0.83 -0.105,1.54 -0.314,2.12c-0.209,0.59 -0.511,1.03 -0.907,1.34c-0.395,0.31 -0.874,0.46 -1.437,0.46zM34.671,47.57c0.558,0 0.991,-0.27 1.299,-0.81c0.309,-0.53 0.463,-1.3 0.463,-2.29c0,-0.67 -0.071,-1.23 -0.213,-1.7c-0.139,-0.46 -0.341,-0.81 -0.604,-1.06c-0.262,-0.24 -0.576,-0.36 -0.945,-0.36c-0.552,0 -0.984,0.27 -1.295,0.81c-0.311,0.55 -0.466,1.31 -0.466,2.31c0,0.66 0.069,1.22 0.209,1.68c0.139,0.47 0.339,0.82 0.601,1.06c0.263,0.24 0.581,0.36 0.951,0.36zM41.24,48.39c-0.562,0 -1.041,-0.15 -1.437,-0.46c-0.395,-0.31 -0.697,-0.75 -0.907,-1.34c-0.209,-0.58 -0.313,-1.29 -0.313,-2.12c0,-0.83 0.104,-1.54 0.313,-2.12c0.212,-0.59 0.516,-1.04 0.911,-1.34c0.398,-0.32 0.876,-0.47 1.433,-0.47c0.558,0 1.034,0.15 1.43,0.47c0.398,0.3 0.702,0.75 0.911,1.34c0.211,0.58 0.317,1.29 0.317,2.12c0,0.83 -0.105,1.54 -0.314,2.12c-0.209,0.59 -0.511,1.03 -0.907,1.34c-0.395,0.31 -0.874,0.46 -1.437,0.46zM41.24,47.57c0.558,0 0.991,-0.27 1.299,-0.81c0.309,-0.53 0.463,-1.3 0.463,-2.29c0,-0.67 -0.071,-1.23 -0.213,-1.7c-0.139,-0.46 -0.341,-0.81 -0.604,-1.06c-0.262,-0.24 -0.576,-0.36 -0.945,-0.36c-0.552,0 -0.984,0.27 -1.295,0.81c-0.311,0.55 -0.466,1.31 -0.466,2.31c0,0.66 0.069,1.22 0.209,1.68c0.139,0.47 0.339,0.82 0.601,1.06c0.263,0.24 0.581,0.36 0.951,0.36z" fill="#121927"/>
</g>
<g id="Frame 392">
<g id="Frame 386">
<rect id="Rectangle 32" x="295.22400000000005" y="411.14999999999964" width="6.00591" height="6.00591" fill="#34A853"/>
<path id="Good" d="M311.885,412.4c-0.082,-0.26 -0.19,-0.48 -0.324,-0.68c-0.132,-0.2 -0.29,-0.37 -0.474,-0.51c-0.182,-0.15 -0.389,-0.25 -0.62,-0.33c-0.231,-0.07 -0.485,-0.11 -0.761,-0.11c-0.453,0 -0.865,0.12 -1.236,0.35c-0.371,0.23 -0.665,0.58 -0.884,1.03c-0.219,0.46 -0.329,1.02 -0.329,1.68c0,0.66 0.111,1.22 0.332,1.68c0.222,0.45 0.522,0.79 0.9,1.03c0.378,0.23 0.804,0.35 1.276,0.35c0.438,0 0.824,-0.09 1.157,-0.28c0.336,-0.19 0.598,-0.46 0.784,-0.8c0.189,-0.34 0.284,-0.75 0.284,-1.22l0.283,0.06h-2.299v-0.82h2.912v0.82c0,0.63 -0.135,1.18 -0.404,1.64c-0.266,0.47 -0.634,0.83 -1.104,1.08c-0.468,0.26 -1.006,0.39 -1.613,0.39c-0.676,0 -1.271,-0.16 -1.784,-0.48c-0.51,-0.32 -0.908,-0.77 -1.194,-1.36c-0.284,-0.59 -0.426,-1.28 -0.426,-2.09c0,-0.61 0.081,-1.15 0.243,-1.63c0.164,-0.49 0.396,-0.9 0.694,-1.24c0.299,-0.34 0.652,-0.6 1.06,-0.78c0.408,-0.19 0.857,-0.28 1.348,-0.28c0.403,0 0.778,0.06 1.127,0.19c0.351,0.12 0.663,0.29 0.937,0.51c0.276,0.22 0.506,0.48 0.69,0.78c0.184,0.31 0.311,0.65 0.381,1.02zM316.68,417.77c-0.517,0 -0.971,-0.12 -1.362,-0.37c-0.388,-0.25 -0.692,-0.59 -0.911,-1.03c-0.216,-0.45 -0.324,-0.96 -0.324,-1.56c0,-0.59 0.108,-1.11 0.324,-1.56c0.219,-0.44 0.523,-0.79 0.911,-1.04c0.391,-0.24 0.845,-0.37 1.362,-0.37c0.518,0 0.971,0.13 1.359,0.37c0.391,0.25 0.694,0.6 0.911,1.04c0.219,0.45 0.328,0.97 0.328,1.56c0,0.6 -0.109,1.11 -0.328,1.56c-0.217,0.44 -0.52,0.78 -0.911,1.03c-0.388,0.25 -0.841,0.37 -1.359,0.37zM316.68,416.98c0.394,0 0.717,-0.1 0.971,-0.3c0.254,-0.2 0.442,-0.47 0.563,-0.8c0.122,-0.33 0.183,-0.68 0.183,-1.07c0,-0.38 -0.061,-0.74 -0.183,-1.07c-0.121,-0.33 -0.309,-0.6 -0.563,-0.8c-0.254,-0.2 -0.577,-0.31 -0.971,-0.31c-0.393,0 -0.716,0.11 -0.97,0.31c-0.254,0.2 -0.442,0.47 -0.564,0.8c-0.121,0.33 -0.182,0.69 -0.182,1.07c0,0.39 0.061,0.74 0.182,1.07c0.122,0.33 0.31,0.6 0.564,0.8c0.254,0.2 0.577,0.3 0.97,0.3zM322.952,417.77c-0.518,0 -0.972,-0.12 -1.363,-0.37c-0.388,-0.25 -0.691,-0.59 -0.91,-1.03c-0.217,-0.45 -0.325,-0.96 -0.325,-1.56c0,-0.59 0.108,-1.11 0.325,-1.56c0.219,-0.44 0.522,-0.79 0.91,-1.04c0.391,-0.24 0.845,-0.37 1.363,-0.37c0.517,0 0.97,0.13 1.358,0.37c0.391,0.25 0.695,0.6 0.911,1.04c0.219,0.45 0.329,0.97 0.329,1.56c0,0.6 -0.11,1.11 -0.329,1.56c-0.216,0.44 -0.52,0.78 -0.911,1.03c-0.388,0.25 -0.841,0.37 -1.358,0.37zM322.952,416.98c0.393,0 0.716,-0.1 0.97,-0.3c0.254,-0.2 0.442,-0.47 0.564,-0.8c0.122,-0.33 0.183,-0.68 0.183,-1.07c0,-0.38 -0.061,-0.74 -0.183,-1.07c-0.122,-0.33 -0.31,-0.6 -0.564,-0.8c-0.254,-0.2 -0.577,-0.31 -0.97,-0.31c-0.393,0 -0.717,0.11 -0.971,0.31c-0.253,0.2 -0.441,0.47 -0.563,0.8c-0.122,0.33 -0.183,0.69 -0.183,1.07c0,0.39 0.061,0.74 0.183,1.07c0.122,0.33 0.31,0.6 0.563,0.8c0.254,0.2 0.578,0.3 0.971,0.3zM329.059,417.77c-0.478,0 -0.9,-0.12 -1.265,-0.36c-0.366,-0.25 -0.652,-0.59 -0.859,-1.03c-0.206,-0.45 -0.31,-0.97 -0.31,-1.58c0,-0.6 0.104,-1.13 0.31,-1.57c0.207,-0.44 0.494,-0.78 0.862,-1.02c0.369,-0.25 0.794,-0.37 1.277,-0.37c0.373,0 0.668,0.07 0.884,0.19c0.219,0.12 0.386,0.26 0.501,0.42c0.116,0.15 0.207,0.28 0.272,0.38h0.075v-2.82h0.88v7.64h-0.851v-0.88h-0.104c-0.065,0.1 -0.157,0.24 -0.276,0.4c-0.12,0.15 -0.29,0.29 -0.512,0.42c-0.221,0.12 -0.516,0.18 -0.884,0.18zM329.178,416.98c0.354,0 0.652,-0.09 0.896,-0.28c0.244,-0.18 0.429,-0.44 0.556,-0.77c0.127,-0.33 0.191,-0.71 0.191,-1.15c0,-0.42 -0.063,-0.8 -0.187,-1.12c-0.124,-0.32 -0.309,-0.57 -0.552,-0.75c-0.244,-0.18 -0.545,-0.28 -0.904,-0.28c-0.373,0 -0.684,0.1 -0.933,0.29c-0.246,0.19 -0.432,0.45 -0.556,0.77c-0.122,0.33 -0.183,0.69 -0.183,1.09c0,0.41 0.062,0.78 0.187,1.12c0.127,0.33 0.313,0.59 0.56,0.79c0.248,0.19 0.557,0.29 0.925,0.29z" fill="black"/>
</g>
<g id="Frame 387">
<rect id="Rectangle 32_2" x="343.245" y="411.14999999999964" width="6.00591" height="6.00591" fill="#EF232A"/>
<path id="Poor" d="M354.681,417.65v-7.64h2.582c0.6,0 1.09,0.11 1.471,0.32c0.383,0.22 0.667,0.51 0.851,0.87c0.184,0.37 0.276,0.78 0.276,1.23c0,0.45 -0.092,0.86 -0.276,1.22c-0.182,0.37 -0.463,0.67 -0.844,0.88c-0.38,0.22 -0.868,0.33 -1.463,0.33h-1.851v-0.82h1.821c0.411,0 0.741,-0.07 0.989,-0.21c0.249,-0.15 0.43,-0.34 0.542,-0.58c0.114,-0.24 0.171,-0.52 0.171,-0.82c0,-0.31 -0.057,-0.58 -0.171,-0.83c-0.112,-0.24 -0.294,-0.43 -0.545,-0.56c-0.252,-0.14 -0.585,-0.21 -1.001,-0.21h-1.627v6.82zM363.5,417.77c-0.517,0 -0.972,-0.12 -1.362,-0.37c-0.388,-0.25 -0.692,-0.59 -0.911,-1.03c-0.216,-0.45 -0.325,-0.96 -0.325,-1.56c0,-0.59 0.109,-1.11 0.325,-1.56c0.219,-0.44 0.523,-0.79 0.911,-1.04c0.39,-0.24 0.845,-0.37 1.362,-0.37c0.518,0 0.971,0.13 1.359,0.37c0.39,0.25 0.694,0.6 0.91,1.04c0.219,0.45 0.329,0.97 0.329,1.56c0,0.6 -0.11,1.11 -0.329,1.56c-0.216,0.44 -0.52,0.78 -0.91,1.03c-0.388,0.25 -0.841,0.37 -1.359,0.37zM363.5,416.98c0.393,0 0.717,-0.1 0.971,-0.3c0.253,-0.2 0.441,-0.47 0.563,-0.8c0.122,-0.33 0.183,-0.68 0.183,-1.07c0,-0.38 -0.061,-0.74 -0.183,-1.07c-0.122,-0.33 -0.31,-0.6 -0.563,-0.8c-0.254,-0.2 -0.578,-0.31 -0.971,-0.31c-0.393,0 -0.717,0.11 -0.97,0.31c-0.254,0.2 -0.442,0.47 -0.564,0.8c-0.122,0.33 -0.183,0.69 -0.183,1.07c0,0.39 0.061,0.74 0.183,1.07c0.122,0.33 0.31,0.6 0.564,0.8c0.253,0.2 0.577,0.3 0.97,0.3zM369.771,417.77c-0.517,0 -0.971,-0.12 -1.362,-0.37c-0.388,-0.25 -0.692,-0.59 -0.911,-1.03c-0.216,-0.45 -0.324,-0.96 -0.324,-1.56c0,-0.59 0.108,-1.11 0.324,-1.56c0.219,-0.44 0.523,-0.79 0.911,-1.04c0.391,-0.24 0.845,-0.37 1.362,-0.37c0.518,0 0.971,0.13 1.359,0.37c0.391,0.25 0.694,0.6 0.911,1.04c0.219,0.45 0.328,0.97 0.328,1.56c0,0.6 -0.109,1.11 -0.328,1.56c-0.217,0.44 -0.52,0.78 -0.911,1.03c-0.388,0.25 -0.841,0.37 -1.359,0.37zM369.771,416.98c0.394,0 0.717,-0.1 0.971,-0.3c0.254,-0.2 0.441,-0.47 0.563,-0.8c0.122,-0.33 0.183,-0.68 0.183,-1.07c0,-0.38 -0.061,-0.74 -0.183,-1.07c-0.122,-0.33 -0.309,-0.6 -0.563,-0.8c-0.254,-0.2 -0.577,-0.31 -0.971,-0.31c-0.393,0 -0.716,0.11 -0.97,0.31c-0.254,0.2 -0.442,0.47 -0.564,0.8c-0.122,0.33 -0.182,0.69 -0.182,1.07c0,0.39 0.06,0.74 0.182,1.07c0.122,0.33 0.31,0.6 0.564,0.8c0.254,0.2 0.577,0.3 0.97,0.3zM373.714,417.65v-5.73h0.851v0.86h0.059c0.105,-0.28 0.294,-0.51 0.568,-0.69c0.273,-0.17 0.582,-0.26 0.925,-0.26c0.065,0 0.146,0 0.243,0c0.097,0 0.17,0.01 0.22,0.01v0.9c-0.03,-0.01 -0.098,-0.02 -0.205,-0.03c-0.105,-0.02 -0.215,-0.03 -0.332,-0.03c-0.279,0 -0.528,0.06 -0.747,0.18c-0.216,0.11 -0.388,0.27 -0.515,0.47c-0.124,0.2 -0.186,0.43 -0.186,0.69v3.63z" fill="black"/>
</g>
<g id="Frame 388">
<rect id="Rectangle 32_3" x="388.26599999999996" y="411.14999999999964" width="6.00591" height="6.00591" fill="#34A853"/>
<path id="Average Rank" d="M400.016,417.65h-0.971l2.807,-7.64h0.955l2.807,7.64h-0.97l-2.285,-6.43h-0.059zM400.374,414.67h3.911v0.82h-3.911zM410.655,411.92l-2.12,5.73h-0.896l-2.12,-5.73h0.955l1.583,4.57h0.06l1.582,-4.57zM414.016,417.77c-0.553,0 -1.029,-0.12 -1.43,-0.37c-0.398,-0.24 -0.705,-0.58 -0.922,-1.03c-0.214,-0.44 -0.321,-0.95 -0.321,-1.54c0,-0.59 0.107,-1.11 0.321,-1.55c0.217,-0.45 0.518,-0.8 0.903,-1.06c0.389,-0.25 0.841,-0.38 1.359,-0.38c0.299,0 0.593,0.05 0.885,0.15c0.291,0.1 0.556,0.26 0.795,0.49c0.238,0.22 0.429,0.51 0.571,0.88c0.141,0.36 0.212,0.82 0.212,1.35v0.37h-4.419v-0.76h3.524c0,-0.32 -0.065,-0.61 -0.194,-0.86c-0.127,-0.26 -0.309,-0.46 -0.545,-0.6c-0.234,-0.15 -0.51,-0.23 -0.829,-0.23c-0.351,0 -0.654,0.09 -0.911,0.27c-0.253,0.17 -0.449,0.39 -0.586,0.67c-0.136,0.27 -0.205,0.57 -0.205,0.89v0.5c0,0.44 0.075,0.8 0.224,1.1c0.152,0.3 0.362,0.53 0.631,0.69c0.269,0.15 0.581,0.23 0.937,0.23c0.231,0 0.44,-0.03 0.627,-0.1c0.189,-0.06 0.352,-0.16 0.489,-0.3c0.136,-0.13 0.242,-0.3 0.317,-0.5l0.851,0.24c-0.09,0.29 -0.24,0.54 -0.452,0.76c-0.211,0.22 -0.473,0.39 -0.784,0.51c-0.311,0.12 -0.66,0.18 -1.048,0.18zM417.729,417.65v-5.73h0.851v0.86h0.06c0.105,-0.28 0.294,-0.51 0.567,-0.69c0.274,-0.17 0.583,-0.26 0.926,-0.26c0.065,0 0.146,0 0.243,0c0.097,0 0.17,0.01 0.22,0.01v0.9c-0.03,-0.01 -0.099,-0.02 -0.205,-0.03c-0.105,-0.02 -0.216,-0.03 -0.333,-0.03c-0.278,0 -0.527,0.06 -0.746,0.18c-0.217,0.11 -0.388,0.27 -0.515,0.47c-0.125,0.2 -0.187,0.43 -0.187,0.69v3.63zM423.327,417.79c-0.363,0 -0.693,-0.07 -0.989,-0.21c-0.296,-0.14 -0.531,-0.34 -0.706,-0.6c-0.174,-0.26 -0.261,-0.58 -0.261,-0.96c0,-0.32 0.065,-0.59 0.194,-0.79c0.13,-0.21 0.303,-0.37 0.519,-0.49c0.217,-0.12 0.455,-0.2 0.717,-0.26c0.263,-0.06 0.528,-0.11 0.795,-0.14c0.348,-0.05 0.63,-0.08 0.847,-0.1c0.219,-0.03 0.378,-0.07 0.478,-0.13c0.102,-0.05 0.153,-0.15 0.153,-0.3v-0.03c0,-0.36 -0.101,-0.65 -0.303,-0.85c-0.199,-0.21 -0.501,-0.31 -0.907,-0.31c-0.42,0 -0.75,0.09 -0.989,0.28c-0.239,0.18 -0.407,0.38 -0.504,0.59l-0.836,-0.3c0.15,-0.35 0.349,-0.62 0.598,-0.82c0.251,-0.19 0.525,-0.33 0.821,-0.41c0.298,-0.08 0.592,-0.12 0.881,-0.12c0.184,0 0.395,0.03 0.634,0.07c0.241,0.04 0.474,0.13 0.698,0.27c0.226,0.13 0.414,0.33 0.564,0.6c0.149,0.28 0.224,0.64 0.224,1.09v3.78h-0.881v-0.78h-0.045c-0.06,0.13 -0.159,0.26 -0.299,0.4c-0.139,0.15 -0.324,0.27 -0.556,0.37c-0.231,0.1 -0.514,0.15 -0.847,0.15zM423.461,416.99c0.349,0 0.642,-0.06 0.881,-0.2c0.242,-0.14 0.423,-0.31 0.545,-0.53c0.124,-0.22 0.187,-0.45 0.187,-0.68v-0.81c-0.038,0.04 -0.12,0.09 -0.247,0.12c-0.124,0.04 -0.268,0.07 -0.433,0.1c-0.161,0.02 -0.319,0.04 -0.474,0.06c-0.151,0.02 -0.275,0.04 -0.369,0.05c-0.229,0.03 -0.443,0.08 -0.642,0.14c-0.197,0.07 -0.356,0.17 -0.478,0.3c-0.119,0.13 -0.179,0.3 -0.179,0.53c0,0.3 0.113,0.54 0.34,0.69c0.229,0.16 0.518,0.23 0.869,0.23zM429.876,419.92c-0.425,0 -0.791,-0.05 -1.097,-0.16c-0.306,-0.11 -0.561,-0.25 -0.765,-0.43c-0.202,-0.17 -0.362,-0.36 -0.482,-0.56l0.702,-0.49c0.08,0.1 0.18,0.22 0.302,0.36c0.122,0.13 0.289,0.25 0.501,0.35c0.214,0.1 0.493,0.15 0.839,0.15c0.463,0 0.845,-0.11 1.146,-0.33c0.301,-0.23 0.452,-0.58 0.452,-1.05v-1.17h-0.075c-0.065,0.11 -0.157,0.24 -0.276,0.39c-0.117,0.15 -0.286,0.29 -0.508,0.41c-0.219,0.11 -0.515,0.17 -0.888,0.17c-0.463,0 -0.878,-0.11 -1.247,-0.33c-0.365,-0.22 -0.655,-0.53 -0.869,-0.95c-0.212,-0.42 -0.317,-0.93 -0.317,-1.53c0,-0.58 0.103,-1.09 0.309,-1.53c0.207,-0.44 0.494,-0.78 0.862,-1.01c0.369,-0.25 0.794,-0.37 1.277,-0.37c0.373,0 0.669,0.07 0.888,0.19c0.222,0.12 0.391,0.26 0.508,0.42c0.119,0.15 0.211,0.28 0.276,0.38h0.09v-0.91h0.851v5.9c0,0.49 -0.112,0.89 -0.336,1.2c-0.222,0.31 -0.52,0.54 -0.896,0.68c-0.373,0.15 -0.789,0.22 -1.247,0.22zM429.846,416.77c0.354,0 0.652,-0.08 0.896,-0.24c0.244,-0.16 0.429,-0.4 0.556,-0.7c0.127,-0.3 0.191,-0.67 0.191,-1.09c0,-0.41 -0.063,-0.78 -0.187,-1.09c-0.124,-0.32 -0.308,-0.57 -0.552,-0.75c-0.244,-0.18 -0.545,-0.27 -0.904,-0.27c-0.373,0 -0.684,0.1 -0.933,0.29c-0.246,0.19 -0.431,0.44 -0.556,0.76c-0.122,0.32 -0.183,0.67 -0.183,1.06c0,0.4 0.063,0.75 0.187,1.06c0.127,0.3 0.313,0.54 0.56,0.71c0.249,0.17 0.557,0.26 0.925,0.26zM436.371,417.77c-0.553,0 -1.029,-0.12 -1.43,-0.37c-0.398,-0.24 -0.705,-0.58 -0.922,-1.03c-0.214,-0.44 -0.321,-0.95 -0.321,-1.54c0,-0.59 0.107,-1.11 0.321,-1.55c0.217,-0.45 0.518,-0.8 0.903,-1.06c0.389,-0.25 0.841,-0.38 1.359,-0.38c0.299,0 0.593,0.05 0.885,0.15c0.291,0.1 0.556,0.26 0.795,0.49c0.238,0.22 0.429,0.51 0.571,0.88c0.141,0.36 0.212,0.82 0.212,1.35v0.37h-4.419v-0.76h3.524c0,-0.32 -0.065,-0.61 -0.194,-0.86c-0.127,-0.26 -0.309,-0.46 -0.545,-0.6c-0.234,-0.15 -0.51,-0.23 -0.829,-0.23c-0.351,0 -0.654,0.09 -0.911,0.27c-0.253,0.17 -0.449,0.39 -0.586,0.67c-0.136,0.27 -0.205,0.57 -0.205,0.89v0.5c0,0.44 0.075,0.8 0.224,1.1c0.152,0.3 0.362,0.53 0.631,0.69c0.269,0.15 0.581,0.23 0.937,0.23c0.231,0 0.44,-0.03 0.627,-0.1c0.189,-0.06 0.352,-0.16 0.489,-0.3c0.136,-0.13 0.242,-0.3 0.317,-0.5l0.851,0.24c-0.09,0.29 -0.24,0.54 -0.452,0.76c-0.211,0.22 -0.473,0.39 -0.784,0.51c-0.311,0.12 -0.66,0.18 -1.048,0.18zM443.16,417.65v-7.64h2.583c0.597,0 1.087,0.1 1.47,0.3c0.383,0.2 0.667,0.48 0.851,0.84c0.184,0.35 0.276,0.75 0.276,1.2c0,0.45 -0.092,0.85 -0.276,1.2c-0.184,0.35 -0.466,0.62 -0.847,0.82c-0.381,0.2 -0.867,0.3 -1.459,0.3h-2.091v-0.84h2.061c0.408,0 0.736,-0.06 0.985,-0.18c0.251,-0.12 0.433,-0.29 0.545,-0.51c0.114,-0.22 0.172,-0.48 0.172,-0.79c0,-0.3 -0.058,-0.57 -0.172,-0.8c-0.115,-0.23 -0.297,-0.41 -0.549,-0.53c-0.251,-0.13 -0.583,-0.19 -0.996,-0.19h-1.628v6.82zM446.758,414.22l1.881,3.43h-1.075l-1.851,-3.43zM451.45,417.79c-0.363,0 -0.693,-0.07 -0.989,-0.21c-0.296,-0.14 -0.531,-0.34 -0.705,-0.6c-0.174,-0.26 -0.261,-0.58 -0.261,-0.96c0,-0.32 0.064,-0.59 0.194,-0.79c0.129,-0.21 0.302,-0.37 0.518,-0.49c0.217,-0.12 0.456,-0.2 0.717,-0.26c0.264,-0.06 0.529,-0.11 0.795,-0.14c0.348,-0.05 0.631,-0.08 0.847,-0.1c0.219,-0.03 0.379,-0.07 0.478,-0.13c0.102,-0.05 0.153,-0.15 0.153,-0.3v-0.03c0,-0.36 -0.101,-0.65 -0.302,-0.85c-0.199,-0.21 -0.502,-0.31 -0.907,-0.31c-0.421,0 -0.75,0.09 -0.989,0.28c-0.239,0.18 -0.407,0.38 -0.504,0.59l-0.836,-0.3c0.149,-0.35 0.348,-0.62 0.597,-0.82c0.251,-0.19 0.525,-0.33 0.821,-0.41c0.299,-0.08 0.592,-0.12 0.881,-0.12c0.184,0 0.396,0.03 0.634,0.07c0.242,0.04 0.474,0.13 0.698,0.27c0.227,0.13 0.415,0.33 0.564,0.6c0.149,0.28 0.224,0.64 0.224,1.09v3.78h-0.881v-0.78h-0.045c-0.059,0.13 -0.159,0.26 -0.298,0.4c-0.14,0.15 -0.325,0.27 -0.556,0.37c-0.232,0.1 -0.514,0.15 -0.848,0.15zM451.585,416.99c0.348,0 0.642,-0.06 0.881,-0.2c0.241,-0.14 0.423,-0.31 0.544,-0.53c0.125,-0.22 0.187,-0.45 0.187,-0.68v-0.81c-0.037,0.04 -0.119,0.09 -0.246,0.12c-0.125,0.04 -0.269,0.07 -0.433,0.1c-0.162,0.02 -0.32,0.04 -0.474,0.06c-0.152,0.02 -0.275,0.04 -0.37,0.05c-0.229,0.03 -0.443,0.08 -0.642,0.14c-0.196,0.07 -0.356,0.17 -0.477,0.3c-0.12,0.13 -0.18,0.3 -0.18,0.53c0,0.3 0.114,0.54 0.34,0.69c0.229,0.16 0.519,0.23 0.87,0.23zM456.566,414.2v3.45h-0.88v-5.73h0.851v0.89h0.074c0.135,-0.29 0.339,-0.52 0.612,-0.7c0.274,-0.18 0.627,-0.27 1.06,-0.27c0.389,0 0.728,0.08 1.019,0.24c0.291,0.16 0.518,0.4 0.68,0.72c0.161,0.32 0.242,0.72 0.242,1.21v3.64h-0.881v-3.58c0,-0.45 -0.117,-0.8 -0.35,-1.05c-0.234,-0.26 -0.555,-0.39 -0.963,-0.39c-0.282,0 -0.533,0.07 -0.754,0.19c-0.219,0.12 -0.392,0.3 -0.519,0.53c-0.127,0.24 -0.191,0.52 -0.191,0.85zM462.655,415.56l-0.015,-1.09h0.179l2.508,-2.55h1.09l-2.672,2.7h-0.075zM461.834,417.65v-7.64h0.881v7.64zM465.477,417.65l-2.24,-2.84l0.627,-0.61l2.732,3.45z" fill="black"/>
</g>
</g>
<path id="Vector 55" d="M105.218,333.58l48.919,-22.58c1.665,-0.77 3.248,-1.7 4.724,-2.79l36.282,-26.78c5.077,-3.75 11.306,-5.6 17.605,-5.24l46.102,2.66c5.788,0.33 11.53,-1.2 16.378,-4.38l46.934,-30.79c5.147,-3.37 11.292,-4.89 17.419,-4.3l38.568,3.72c7.198,0.7 14.375,-1.52 19.925,-6.16l44.091,-36.84c6.16,-5.14 14.291,-7.29 22.188,-5.84l37.287,6.81c7.351,1.35 14.93,-0.41 20.937,-4.86l39.78,-29.44c4.808,-3.56 10.661,-5.42 16.641,-5.3l51.438,1.07c7.754,0.16 15.203,-3.01 20.454,-8.72l50.56,-54.97" stroke="#34A853" stroke-width="2.25222"/>
<path id="Vector 56" d="M96.023,308.9l57.213,16.62c7.703,2.24 16.001,0.94 22.651,-3.54l53.519,-36.09c7.704,-5.2 17.536,-6.07 26.036,-2.32l67.54,29.85c5.658,2.5 12.001,2.99 17.973,1.38l60.803,-16.43c2.645,-0.71 5.166,-1.82 7.477,-3.3l56.798,-36.19c7.696,-4.9 17.347,-5.59 25.662,-1.83l38.853,17.57c5.753,2.6 12.235,3.11 18.323,1.43l45.401,-12.52c5.403,-1.49 11.137,-1.26 16.406,0.65l38.243,13.88c1.837,0.67 3.597,1.54 5.249,2.58l60.05,38.08" stroke="#EF232A" stroke-width="2.25222"/>
<path id="Vector 57" d="M708.96,207.17l-58.95,-8.64c-7.936,-1.17 -15.979,1.26 -21.953,6.61l-48.081,43.07c-6.921,6.2 -16.542,8.41 -25.475,5.85l-70.988,-20.34c-5.946,-1.7 -12.297,-1.31 -17.991,1.1l-57.987,24.59c-2.523,1.06 -4.868,2.51 -6.955,4.29l-51.316,43.62c-6.953,5.91 -16.42,7.91 -25.171,5.32l-40.89,-12.1c-6.055,-1.79 -12.546,-1.4 -18.347,1.09l-43.263,18.61c-5.149,2.22 -10.859,2.78 -16.34,1.6l-39.782,-8.52c-1.912,-0.41 -3.774,-1.03 -5.553,-1.84l-64.696,-29.5" stroke="#A0A0AA" stroke-width="2.25222"/>
</g></svg>