<svg viewBox="0 0 87.7378 87.7378" x="0" y="0" fill="none" xmlns="http://www.w3.org/2000/svg"><defs><mask id="path-39-inside-1_1386_15716" fill="white" xmlns="http://www.w3.org/2000/svg">
<path d="M79.9719,24.408c4.308,7.837 5.93,16.869 4.617,25.715c-1.312,8.846 -5.487,17.019 -11.885,23.267c-6.398,6.249 -14.667,10.229 -23.542,11.331c-8.875,1.103 -17.867,-0.732 -25.599,-5.225l20.554,-35.378z"/>
</mask><mask id="path-40-inside-2_1386_15716" fill="white" xmlns="http://www.w3.org/2000/svg">
<path d="M26.0869,80.848c-6.976,-3.425 -12.832,-8.765 -16.883,-15.396c-4.052,-6.631 -6.131,-14.279 -5.995,-22.049c0.135,-7.769 2.481,-15.339 6.762,-21.825c4.282,-6.485 10.321,-11.617 17.412,-14.795l16.734,37.336z"/>
</mask><clipPath id="clip11_1386_15716" xmlns="http://www.w3.org/2000/svg">
<rect width="87.7378" height="87.7378" fill="white" transform="translate(-0.00009999999997489795, 0)"/>
</clipPath></defs><g id="Frame 907" clip-path="url(#clip11_1386_15716)" xmlns="http://www.w3.org/2000/svg">
<circle id="Ellipse 71" cx="44.1169000000001" cy="44.117999999999995" r="40.7787" fill="#EF232A" stroke="white" stroke-width="0.272995"/>
<g id="Ellipse 72">
<mask id="path-39-inside-1_1386_15716" fill="white">
<path d="M600.603 267.908C604.911 275.745 606.533 284.777 605.22 293.623C603.908 302.469 599.733 310.642 593.335 316.89C586.937 323.139 578.668 327.119 569.793 328.221C560.918 329.324 551.926 327.489 544.194 322.996L564.748 287.618L600.603 267.908Z"/>
</mask>
<path d="M79.9719,24.408c4.308,7.837 5.93,16.869 4.617,25.715c-1.312,8.846 -5.487,17.019 -11.885,23.267c-6.398,6.249 -14.667,10.229 -23.542,11.331c-8.875,1.103 -17.867,-0.732 -25.599,-5.225l20.554,-35.378z" fill="#34A853" stroke="white" stroke-width="0.54599" mask="url(#path-39-inside-1_1386_15716)"/>
</g>
<g id="Ellipse 73">
<mask id="path-40-inside-2_1386_15716" fill="white">
<path d="M546.718 324.348C539.742 320.923 533.886 315.583 529.835 308.952C525.783 302.321 523.704 294.673 523.84 286.903C523.975 279.134 526.321 271.564 530.602 265.078C534.884 258.593 540.923 253.461 548.014 250.283L564.748 287.619L546.718 324.348Z"/>
</mask>
<path d="M26.0869,80.848c-6.976,-3.425 -12.832,-8.765 -16.883,-15.396c-4.052,-6.631 -6.131,-14.279 -5.995,-22.049c0.135,-7.769 2.481,-15.339 6.762,-21.825c4.282,-6.485 10.321,-11.617 17.412,-14.795l16.734,37.336z" fill="#0B91D6" stroke="white" stroke-width="0.54599" mask="url(#path-40-inside-2_1386_15716)"/>
</g>
</g></svg>