<svg viewBox="0 0 142 142" x="0" y="0" fill="none" xmlns="http://www.w3.org/2000/svg"><defs><mask id="path-158-inside-24_1386_15716" fill="white" xmlns="http://www.w3.org/2000/svg">
<path d="M142,71c0,14.99 -4.75,29.6 -13.56,41.73c-8.81,12.13 -21.24,21.16 -35.5,25.8c-14.26,4.63 -29.62,4.63 -43.88,0c-14.26,-4.64 -26.69,-13.67 -35.5,-25.8l57.44,-41.73z"/>
</mask></defs><g id="Group 78_2" xmlns="http://www.w3.org/2000/svg">
<circle id="Ellipse 50_2" cx="71" cy="71" r="71" fill="#114069" fill-opacity="0.2"/>
<g id="Ellipse 51_2">
<mask id="path-158-inside-24_1386_15716" fill="white">
<path d="M1210 1112C1210 1126.99 1205.25 1141.6 1196.44 1153.73C1187.63 1165.86 1175.2 1174.89 1160.94 1179.53C1146.68 1184.16 1131.32 1184.16 1117.06 1179.53C1102.8 1174.89 1090.37 1165.86 1081.56 1153.73L1139 1112H1210Z"/>
</mask>
<path d="M142,71c0,14.99 -4.75,29.6 -13.56,41.73c-8.81,12.13 -21.24,21.16 -35.5,25.8c-14.26,4.63 -29.62,4.63 -43.88,0c-14.26,-4.64 -26.69,-13.67 -35.5,-25.8l57.44,-41.73z" fill="#114069" stroke="white" stroke-width="2" mask="url(#path-158-inside-24_1386_15716)"/>
</g>
</g></svg>