<svg viewBox="0 0 556 144" x="0" y="0" fill="none" xmlns="http://www.w3.org/2000/svg"><g id="Frame 370" xmlns="http://www.w3.org/2000/svg">
<g id="Group 73">
<path id="Vector 39" d="M556,4c2.21,0 4,-1.791 4,-4c0,-2.209 -1.79,-4 -4,-4v4zM556,0v-4h-556v4v4h556z" fill="#A0A0AA" fill-opacity="0.2"/>
<path id="Vector 44" d="M0,-4c-2.209,0 -4,1.791 -4,4c0,2.209 1.791,4 4,4v-4zM371,0v-4h-371v4v4h371z" fill="#34A853"/>
</g>
<g id="Group 74">
<path id="Vector 40" d="M556,40c2.21,0 4,-1.791 4,-4c0,-2.209 -1.79,-4 -4,-4v4zM556,36v-4h-556v4v4h556z" fill="#A0A0AA" fill-opacity="0.2"/>
<path id="Vector 45" d="M0,32c-2.209,0 -4,1.791 -4,4c0,2.209 1.791,4 4,4v-4zM247,36v-4h-247v4v4h247z" fill="#34A853"/>
</g>
<g id="Group 75">
<path id="Vector 41" d="M556,76c2.21,0 4,-1.791 4,-4c0,-2.209 -1.79,-4 -4,-4v4zM556,72v-4h-556v4v4h556z" fill="#A0A0AA" fill-opacity="0.2"/>
<path id="Vector 46" d="M0,68c-2.209,0 -4,1.791 -4,4c0,2.209 1.791,4 4,4v-4zM215,72v-4h-215v4v4h215z" fill="#34A853"/>
</g>
<g id="Group 76">
<path id="Vector 42" d="M556,112c2.21,0 4,-1.791 4,-4c0,-2.209 -1.79,-4 -4,-4v4zM556,108v-4h-556v4v4h556z" fill="#A0A0AA" fill-opacity="0.2"/>
<path id="Vector 47" d="M0,104c-2.209,0 -4,1.791 -4,4c0,2.209 1.791,4 4,4v-4zM155,108v-4h-155v4v4h155z" fill="#34A853"/>
</g>
<g id="Group 77">
<path id="Vector 43" d="M556,148c2.21,0 4,-1.791 4,-4c0,-2.209 -1.79,-4 -4,-4v4zM556,144v-4h-556v4v4h556z" fill="#A0A0AA" fill-opacity="0.2"/>
<path id="Vector 48" d="M0,140c-2.209,0 -4,1.791 -4,4c0,2.209 1.791,4 4,4v-4zM287,144v-4h-287v4v4h287z" fill="#34A853"/>
</g>
</g></svg>