<svg viewBox="0 0 116 24" x="0" y="0" fill="none" xmlns="http://www.w3.org/2000/svg"><defs><linearGradient id="paint1_linear_1386_15716" x1="91" y1="9" x2="71" y2="9" gradientUnits="userSpaceOnUse" xmlns="http://www.w3.org/2000/svg">
<stop offset="0.5" stop-color="#D9D9D9"/>
<stop offset="0.5" stop-color="#FBBC05"/>
</linearGradient></defs><g id="Frame 367" xmlns="http://www.w3.org/2000/svg">
<path id="Star 1" d="M12,0l2.694,8.292h8.719l-7.054,5.124l2.694,8.292l-7.053,-5.124l-7.053,5.124l2.694,-8.292l-7.054,-5.124h8.719z" fill="#FBBC05"/>
<path id="Star 2" d="M35,0l2.694,8.292h8.719l-7.054,5.124l2.694,8.292l-7.053,-5.124l-7.053,5.124l2.694,-8.292l-7.054,-5.124h8.719z" fill="#FBBC05"/>
<path id="Star 3" d="M58,0l2.694,8.292h8.719l-7.054,5.124l2.694,8.292l-7.053,-5.124l-7.053,5.124l2.694,-8.292l-7.054,-5.124h8.719z" fill="#FBBC05"/>
<path id="Star 4" d="M81,0l2.694,8.292h8.719l-7.054,5.124l2.694,8.292l-7.053,-5.124l-7.053,5.124l2.694,-8.292l-7.054,-5.124h8.719z" fill="url(#paint1_linear_1386_15716)"/>
<path id="Star 5" d="M104,0l2.694,8.292h8.719l-7.054,5.124l2.694,8.292l-7.053,-5.124l-7.053,5.124l2.694,-8.292l-7.054,-5.124h8.719z" fill="#D9D9D9"/>
</g></svg>