<svg viewBox="0 0 14 20" x="0" y="0" fill="none" xmlns="http://www.w3.org/2000/svg"><path id="Vector_56" d="M7,9.5c-0.66,0 -1.3,-0.26 -1.77,-0.73c-0.47,-0.47 -0.73,-1.11 -0.73,-1.77c0,-0.66 0.26,-1.3 0.73,-1.77c0.47,-0.47 1.11,-0.73 1.77,-0.73c0.66,0 1.3,0.26 1.77,0.73c0.47,0.47 0.73,1.11 0.73,1.77c0,0.33 -0.06,0.65 -0.19,0.96c-0.13,0.3 -0.31,0.58 -0.54,0.81c-0.23,0.23 -0.51,0.41 -0.81,0.54c-0.31,0.13 -0.63,0.19 -0.96,0.19zM7,0c-1.86,0 -3.64,0.74 -4.95,2.05c-1.31,1.31 -2.05,3.09 -2.05,4.95c0,5.25 7,13 7,13c0,0 7,-7.75 7,-13c0,-1.86 -0.74,-3.64 -2.05,-4.95c-1.31,-1.31 -3.09,-2.05 -4.95,-2.05z" fill="currentColor" xmlns="http://www.w3.org/2000/svg"/></svg>